<svg xmlns="http://www.w3.org/2000/svg" viewBox="0 0 328.52 134.78"><defs><style>.cls-1,.cls-3,.cls-4{fill:none;stroke-linecap:round;stroke-linejoin:round;}.cls-1,.cls-2,.cls-4{stroke:#a42dcc;}.cls-1{stroke-width:2px;}.cls-2{fill:#a42dcc;stroke-width:0.1px;}.cls-3{stroke:#3f4040;}.cls-3,.cls-4{stroke-width:2.4px;}</style></defs><title>acronym-html</title><g id="Layer_2" data-name="Layer 2"><g id="HTML"><g id="HTML_comments" data-name="HTML comments"><path id="STROKE_5D61AC58-E387-4DA0-93DC-22C2F8479688" data-name="STROKE 5D61AC58-E387-4DA0-93DC-22C2F8479688" class="cls-1" d="M107.66,97.06a4.16,4.16,0,0,0,0-.5c0-.17,0-.53-.11-1.06a10.77,10.77,0,0,0-.34-1.61,11.1,11.1,0,0,0-.4-1.25q-.18-.42-.36-.75c-.13-.21-.25-.4-.37-.57a6,6,0,0,0-.41-.47c-.14-.14-.35-.32-.62-.54a18,18,0,0,0-1.58-1c-.78-.46-1.38-.8-1.8-1l-.8-.42-1-.5q-.84-.4-1.68-.75c-.57-.24-.91-.37-1-.41l-.7-.2c-.35-.09-.68-.16-1-.22s-.7-.11-1.12-.16-.8-.06-1.16-.06-.58,0-.68,0l-.54.08a14.08,14.08,0,0,0-1.37.33q-1,.27-2.37.75c-.93.31-1.62.56-2.06.75s-.82.35-1.11.49l-.92.42-1,.43-1.81.7-1.64.62q-.36.14-1,.42t-1.53.72l-1.32.64-.71.34-.6.26-.56.21-.69.24-1.07.33c-.45.12-1,.26-1.6.39s-1.09.23-1.43.27a10.2,10.2,0,0,1-1.44,0l-1.09,0c-.11,0-.47-.12-1.09-.3a12.54,12.54,0,0,1-1.45-.49l-.71-.33a5.33,5.33,0,0,1-.54-.34c-.23-.15-.56-.41-1-.77S61,91,60.59,90.59s-.66-.63-.81-.79-.31-.35-.48-.57-.37-.47-.57-.75-.38-.53-.52-.75-.29-.42-.45-.61a2.52,2.52,0,0,0-.38-.43.91.91,0,0,0-.37-.18.67.67,0,0,0-.48.08,2.06,2.06,0,0,0-.61.55c-.23.27-.41.51-.55.71s-.4.6-.82,1.2-.81,1.13-1.17,1.57-.68.8-.94,1.07-.52.52-.77.75-.46.41-.64.56-.35.29-.53.43-.38.29-.6.44-.43.29-.66.43-.45.26-.66.37l-.65.29c-.22.09-.5.18-.84.28a8.79,8.79,0,0,1-.89.22c-.25.05-.75.12-1.48.21s-1.26.15-1.56.17-.89,0-1.77,0-1.39,0-1.52,0-.51-.09-1.14-.23-1.15-.26-1.57-.37l-2.29-.56c-1.11-.26-2-.45-2.76-.59l-1.87-.33-1.55-.27c-.53-.09-1.07-.2-1.62-.31l-1.27-.27-.91-.22-1-.26-.72-.19-.3-.07L22.13,92c-.36-.07-.88-.14-1.56-.22s-1.67-.13-3-.16-2.09,0-2.32,0l-3,.11c-1.76.07-2.72.13-2.88.16l-.7.2q-.45.15-1.14.42c-.47.19-.85.35-1.15.5l-.71.37q-.27.16-.9.6c-.42.28-.93.67-1.52,1.14s-1,.79-1.16,1a7.8,7.8,0,0,0-.62.64,6.53,6.53,0,0,0-.43.5.53.53,0,0,0-.06.15s0,0,0,.06"/><path id="STROKE_A674EFC0-B2BF-4BF9-B828-572B08AA3573" data-name="STROKE A674EFC0-B2BF-4BF9-B828-572B08AA3573" class="cls-1" d="M16.86,44.11c0-.11,0-.19.05-.23l0-.11s0,0,0-.05v.05s0,.79,0,2.24a26.38,26.38,0,0,0,.11,2.79A9.1,9.1,0,0,0,17.35,50a7.07,7.07,0,0,0,.31.89,4.52,4.52,0,0,0,.24.49,4.81,4.81,0,0,0,.27.41l.31.37a3.82,3.82,0,0,0,.32.27,2.88,2.88,0,0,0,.34.23l.4.17a2.24,2.24,0,0,0,.39.1,2.5,2.5,0,0,0,.6,0,3.73,3.73,0,0,0,.58,0l.32-.08.38-.13.35-.16.24-.12.18-.11.15-.08"/><path id="STROKE_E47C837B-E53A-4C83-92D9-192BB1C171E4" data-name="STROKE E47C837B-E53A-4C83-92D9-192BB1C171E4" class="cls-1" d="M24,45.81l-.24.08L23.3,46c-.24.07-.68.17-1.33.3l-1.25.25-.59.1-1.58.2c-.84.1-1.38.16-1.61.16h-.53l-.35,0"/><path id="STROKE_1F81298B-61EC-418B-A7D2-A75671EF103A" data-name="STROKE 1F81298B-61EC-418B-A7D2-A75671EF103A" class="cls-1" d="M25.58,48.42l.46,0c.13,0,.25,0,.37,0l.36,0,.9-.17,1.1-.21.78-.14,1-.16a6.51,6.51,0,0,0,1-.24,2.12,2.12,0,0,0,.51-.23,1.06,1.06,0,0,0,.23-.24,1.69,1.69,0,0,0,.15-.68,1.6,1.6,0,0,0,0-.69.69.69,0,0,0-.16-.28,1,1,0,0,0-.27-.2,6.71,6.71,0,0,0-1.68,0,7.55,7.55,0,0,0-1.73.15,2.32,2.32,0,0,0-.42.25,2.27,2.27,0,0,0-.35.34,6.47,6.47,0,0,0-.42.7,6.05,6.05,0,0,0-.4.87,7,7,0,0,0-.21.73,6.78,6.78,0,0,0-.13.92,3.6,3.6,0,0,0,0,.94,3.34,3.34,0,0,0,.1.52l.11.23a1.54,1.54,0,0,0,.18.26,2.12,2.12,0,0,0,.42.37,2.83,2.83,0,0,0,.54.35A5.27,5.27,0,0,0,29,52a5.2,5.2,0,0,0,1,.21,5.5,5.5,0,0,0,1.07,0A6.31,6.31,0,0,0,32,52a3.86,3.86,0,0,0,.54-.19,3.31,3.31,0,0,0,.5-.24,4.93,4.93,0,0,0,.54-.34q.31-.21.54-.39l.36-.3.25-.22"/><path id="STROKE_5D8F2AC1-E7A6-4952-A87A-1599A524D328" data-name="STROKE 5D8F2AC1-E7A6-4952-A87A-1599A524D328" class="cls-1" d="M40.24,45.34c-.12.12-.27.28-.44.48a6.47,6.47,0,0,0-.44.6c-.12.19-.31.52-.56,1s-.59,1.19-1,2.16-.79,1.7-1,2.18a2.9,2.9,0,0,1-.42.71s-.06,0-.07,0a1.21,1.21,0,0,1,0-.23c0-.15,0-.33,0-.54s0-.53,0-1"/><path id="STROKE_1E1D7D9E-1A09-4AC5-973C-AD2B3E1ED33D" data-name="STROKE 1E1D7D9E-1A09-4AC5-973C-AD2B3E1ED33D" class="cls-1" d="M35.65,45.92q.81.86,1.38,1.41t1,1c.28.25.76.67,1.44,1.24l1.23,1.06.62.53.54.47.2.18.07,0,.07.07"/><path id="STROKE_DB16580B-E22E-47D9-9A0C-A32C1FD6C812" data-name="STROKE DB16580B-E22E-47D9-9A0C-A32C1FD6C812" class="cls-1" d="M43.53,41.51l.1.16.06.17c0,.1.06.24.1.44s.07.45.11.75.05.56.07.76l.1,1.14c0,.57.12,1.16.21,1.78s.18,1.07.26,1.37a8.69,8.69,0,0,0,.35,1,5.06,5.06,0,0,0,.36.72,2.15,2.15,0,0,0,.29.32,1.82,1.82,0,0,0,.26.2,1.12,1.12,0,0,0,.27.08,1.55,1.55,0,0,0,.37,0,5.67,5.67,0,0,0,1-.36c.57-.23,1-.41,1.23-.54l.85-.43a3,3,0,0,1,.71-.27.51.51,0,0,1,.26,0,.12.12,0,0,1,0,.09.49.49,0,0,1,0,.12,2.83,2.83,0,0,1-.15.32c-.09.17-.16.31-.23.42"/><path id="STROKE_B1AB6590-1CC6-499F-AD41-469E13958149" data-name="STROKE B1AB6590-1CC6-499F-AD41-469E13958149" class="cls-1" d="M51.39,44.11l-1.32.24-1.48.26L47,44.87c-.42.06-.85.11-1.3.15s-1.06.09-1.85.14"/><path id="STROKE_429BF3AE-F962-46F9-B7FB-7BFD625237C3" data-name="STROKE 429BF3AE-F962-46F9-B7FB-7BFD625237C3" class="cls-1" d="M63.12,46.94a2.69,2.69,0,0,1,.22-.68,1.76,1.76,0,0,1,.13.34c.07.21.15.51.24.91L64,48.62c.09.34.17.61.23.81s.17.46.3.78a4.69,4.69,0,0,0,.42.84c.14.24.25.37.31.39a.24.24,0,0,0,.11,0l.07,0a1.4,1.4,0,0,0,.17-.3q.14-.26.3-.66t.42-.9a4.6,4.6,0,0,1,.37-.64,1.52,1.52,0,0,1,.34-.31,1.07,1.07,0,0,1,.42-.22.86.86,0,0,1,.39,0,1.19,1.19,0,0,1,.36.17,1.36,1.36,0,0,1,.27.19,6.71,6.71,0,0,1,.49.51l.54.59c.09.11.21.23.33.35a3.75,3.75,0,0,0,.3.26l.2.12a.58.58,0,0,0,.21.08l.17,0a.7.7,0,0,0,.19-.1.43.43,0,0,0,.17-.15A12.69,12.69,0,0,0,71.2,49a15,15,0,0,0,0-2.1c0-.45-.1-.83-.16-1.15s-.1-.55-.13-.72"/><path id="STROKE_72D8F372-BFFA-4358-AE8F-91DA3EF5CA2E" data-name="STROKE 72D8F372-BFFA-4358-AE8F-91DA3EF5CA2E" class="cls-1" d="M78.2,37.06c0,.11,0,.23,0,.33s0,.28,0,.52-.08.61-.17,1.14-.19,1.06-.3,1.6-.2.94-.27,1.23l-.31,1.38c-.15.64-.32,1.41-.51,2.3s-.47,2.24-.82,4-.55,2.82-.6,3.1-.1.58-.15.91l-.15,1c0,.34-.09.61-.11.82s0,.42,0,.64a1.16,1.16,0,0,0,0,.4c0,.05,0,.08.06.08h.07l.12,0"/><path id="STROKE_42189331-5498-4DF9-A68E-19AC523C4E8A" data-name="STROKE 42189331-5498-4DF9-A68E-19AC523C4E8A" class="cls-1" d="M18.41,70.07c.05-.14.08-.23.1-.27a.41.41,0,0,1,0-.09,3.47,3.47,0,0,1,0,.51c0,.35,0,.56,0,.62V71c0,.05,0,.55.1,1.5s.1,1.48.12,1.6.07.47.18,1.09.18,1,.22,1.18.08.36.15.6.11.43.17.6.1.32.16.48.14.37.25.63a3.59,3.59,0,0,1,.17.49c0,.08,0,.11,0,.11L19.81,79l-.45-.39"/><path id="STROKE_D1F3E865-CD14-480B-8BBE-2550D54D5D35" data-name="STROKE D1F3E865-CD14-480B-8BBE-2550D54D5D35" class="cls-1" d="M23.63,73.14l0,.22.06.34c0,.1.06.3.11.58s.13.58.19.9.15.66.23,1,.14.66.17.82.07.3.1.44l.09.41c0,.14.06.26.09.37a3.74,3.74,0,0,0,.15.42A1.65,1.65,0,0,0,25,79s.05-.08.11-.26a3.4,3.4,0,0,0,.14-.67c0-.27.07-.56.11-.87"/><path id="STROKE_9C310D83-C5D5-42F2-B79E-B85C8F8546D2" data-name="STROKE 9C310D83-C5D5-42F2-B79E-B85C8F8546D2" class="cls-1" d="M28.19,72.67l-.05.06a.49.49,0,0,0,0,.14,1.58,1.58,0,0,0,0,.41,6.06,6.06,0,0,0,.13.64l.18.67c.06.23.13.51.2.84s.19.89.35,1.69.27,1.32.33,1.54.11.38.15.49a1,1,0,0,0,.07.16,3.65,3.65,0,0,0,0-.59c0-.38,0-1.13,0-2.24s0-1.71.05-1.77a1.33,1.33,0,0,1,.08-.24c0-.1.1-.26.19-.49s.18-.4.25-.53.18-.31.33-.54a5.26,5.26,0,0,1,.52-.67,4.07,4.07,0,0,1,.53-.51,2,2,0,0,1,.48-.28,1.94,1.94,0,0,1,.45-.14,2.62,2.62,0,0,1,.49,0,1.48,1.48,0,0,1,.32.06.46.46,0,0,1,.14.07,1.19,1.19,0,0,1,.23.23,3.13,3.13,0,0,1,.34.57,7.29,7.29,0,0,1,.37,1c.12.37.22.74.31,1.1l.17.75.11.48.21.91c.1.44.17.7.19.81s.06.19.08.27a1.67,1.67,0,0,0,.07.19s0,.07,0,.07a.28.28,0,0,1,0-.06v-.21c0-.09,0-.18,0-.26s0-.26,0-.54"/><path id="STROKE_76B72A69-C3A4-4732-8EFC-6061C0AB84CF" data-name="STROKE 76B72A69-C3A4-4732-8EFC-6061C0AB84CF" class="cls-1" d="M40.06,70.1q-.09-.31-.15-.6l-.27-1.24a6.35,6.35,0,0,0-.24-1h0s0,.07,0,.18a2.6,2.6,0,0,0,0,.57c0,.28.06.61.11,1s.09.65.11.76,0,.24,0,.36.05.4.1.86.1.81.13,1.06.08.69.15,1.34.13,1.07.16,1.28.1.62.22,1.24.2,1,.26,1.26.14.45.22.66.14.34.16.37a.17.17,0,0,0,.06.06h0s.06-.15.17-.43"/><path id="STROKE_0DE05769-0CBA-4074-8FB8-67E88DD1A3B9" data-name="STROKE 0DE05769-0CBA-4074-8FB8-67E88DD1A3B9" class="cls-1" d="M45.78,71a2.4,2.4,0,0,1,.43,0h.14s0,0,0,.07a.65.65,0,0,1-.17.22,3.49,3.49,0,0,1-.34.31l-.6.48-.62.47L44,73l-.81.59-.91.67a3.14,3.14,0,0,0-.55.46c0,.07,0,.11,0,.13s.2.07.53.18l.61.19.24.08.33.17a2.77,2.77,0,0,1,.34.19l.2.14.21.18c.07.07.28.3.61.68s.62.69.85.95.4.42.5.5a2,2,0,0,0,.3.23,2.09,2.09,0,0,0,.28.17l.31.14a1.89,1.89,0,0,0,.34.09,2.21,2.21,0,0,0,.33,0l.38,0,.31-.07a.62.62,0,0,0,.12-.08.57.57,0,0,0,.11-.14.46.46,0,0,0,0-.21.89.89,0,0,0,0-.17,2.64,2.64,0,0,0-.16-.26"/><path id="STROKE_34364EF3-94E7-4D14-AAD8-D3D8F5C41EC9" data-name="STROKE 34364EF3-94E7-4D14-AAD8-D3D8F5C41EC9" class="cls-1" d="M54.13,71.84l.2,0h.21l.18,0a1,1,0,0,0,.17-.18,1.45,1.45,0,0,0,.14-.74,2.22,2.22,0,0,0,0-.71.85.85,0,0,0-.11-.16l-.18-.12a2.35,2.35,0,0,0-.5-.14,4.46,4.46,0,0,0-1-.06,4.82,4.82,0,0,0-.72,0,.92.92,0,0,0-.23.09,1.65,1.65,0,0,0-.34.21,2.57,2.57,0,0,0-.36.27l-.24.22c-.07.08-.2.24-.37.47a4.18,4.18,0,0,0-.42.68,2.41,2.41,0,0,0-.21.52.79.79,0,0,0,0,.34.38.38,0,0,0,.08.2.35.35,0,0,0,.11.08,2.63,2.63,0,0,0,.54.13l.66.11.38,0,.35,0,.35,0,.38,0,.33,0,.38.06c.15,0,.47.08,1,.19a9.9,9.9,0,0,1,1.08.28,4,4,0,0,1,.66.3l.36.22.09.11a1.38,1.38,0,0,1,.13.22,2.18,2.18,0,0,1,.14.48,3.73,3.73,0,0,1,0,.79,3.05,3.05,0,0,1-.09.73,2.45,2.45,0,0,1-.22.5,3.58,3.58,0,0,1-.31.45,4.15,4.15,0,0,1-.42.43,4.52,4.52,0,0,1-.49.4,4.74,4.74,0,0,1-.54.31,3.13,3.13,0,0,1-.54.23l-.5.12-.47,0a1.86,1.86,0,0,1-.42,0,1.33,1.33,0,0,1-.37-.12,2,2,0,0,1-.4-.24,3.21,3.21,0,0,1-.42-.41,4.44,4.44,0,0,1-.41-.62,5.4,5.4,0,0,1-.32-.64,6,6,0,0,1-.23-.62c-.07-.25-.17-.62-.29-1.14l-.24-1"/><path id="STROKE_F42BE392-5ABA-4180-87E1-D8E34FC2B770" data-name="STROKE F42BE392-5ABA-4180-87E1-D8E34FC2B770" class="cls-1" d="M198.8,97.53a3.26,3.26,0,0,0,.07-.52,3.36,3.36,0,0,0,0-.57,2.36,2.36,0,0,0-.09-.36,1.45,1.45,0,0,0-.1-.25,2.69,2.69,0,0,0-.22-.32A6.52,6.52,0,0,0,198,95l-.56-.59-.49-.52-.41-.48c-.14-.16-.28-.32-.41-.49l-.3-.36c-.06-.07-.3-.34-.73-.8a16.32,16.32,0,0,0-1.33-1.3c-.46-.41-.76-.66-.9-.76s-.32-.22-.56-.37-.57-.35-1-.59-.79-.44-1.08-.59-.57-.29-.86-.43-.56-.27-.82-.39l-.49-.2a1.75,1.75,0,0,0-.33-.11l-.46-.14-.46-.11a4,4,0,0,0-.45-.09c-.14,0-.43-.08-.86-.14a16.5,16.5,0,0,0-2.21-.09,9.32,9.32,0,0,0-2.46.25c-.59.16-1,.3-1.27.4s-.49.2-.72.31l-.45.21-.27.16-.27.15-.71.43-1,.59-.52.3-.23.13-.78.43-.92.51-.32.18-.33.22q-.25.15-.81.54l-.68.46-.24.17-.64.42c-.34.22-.63.41-.87.55s-.6.35-1.08.61l-1,.54-.85.37-.66.28-.24.09-.27.1a4.69,4.69,0,0,1-.51.16c-.24.08-.51.15-.79.22s-.55.11-.79.14a11.76,11.76,0,0,1-1.59,0c-.82,0-1.27-.07-1.34-.09s-.22-.09-.46-.2l-.46-.21-.21-.1-.44-.24-.49-.27c-.1,0-.32-.2-.68-.44s-.58-.38-.65-.44-.21-.18-.41-.36-.42-.41-.65-.67l-.84-1-.61-.69-.26-.28-.24-.27-.36-.46c-.17-.23-.29-.41-.38-.55s-.18-.3-.29-.51-.19-.36-.26-.48a2.27,2.27,0,0,0-.16-.25.42.42,0,0,0-.14-.12.28.28,0,0,0-.13-.06l-.12,0a.83.83,0,0,0-.24.17,1.87,1.87,0,0,0-.26.3,2.68,2.68,0,0,0-.22.42,4.58,4.58,0,0,0-.18.44l-.1.35-.06.19s0,.11-.08.23a6.92,6.92,0,0,1-.36.74q-.28.55-.45.81c-.11.17-.22.32-.32.45a3.47,3.47,0,0,1-.23.28l-.18.18-.34.3a5.22,5.22,0,0,1-.57.41,5.38,5.38,0,0,1-.58.34,4.42,4.42,0,0,1-.48.21c-.15.05-.28.1-.41.13l-.39.1-.45.11-.71.18-.61.16-.53.14-.48.12-.17,0-.31,0c-.16,0-.7.05-1.62.08l-1.43,0-1.2-.07c-.77,0-1.2-.08-1.3-.1l-.27-.09-.27-.11-.38-.15-.57-.21-.7-.22-.52-.13-.26-.06-.25,0-.42-.09-.47-.1-.54-.13-.94-.25c-.39-.1-.67-.18-.84-.21a5.25,5.25,0,0,0-.55-.09q-.28,0-.87,0a6.8,6.8,0,0,0-.68,0l-.33.07c-.16,0-.5.18-1.05.4l-1.09.45-.62.27-.57.25-.38.21-.25.16-.32.26a3.6,3.6,0,0,0-.32.3l-.31.36-.31.39L124,96a.41.41,0,0,0-.07.11l-.12.23c-.06.11-.13.26-.21.43s-.2.41-.34.73a6.56,6.56,0,0,0-.28.69,1.27,1.27,0,0,0-.06.28.16.16,0,0,0,0,.11s.08,0,.16,0a.78.78,0,0,0,.29-.16,1.41,1.41,0,0,0,.2-.18"/><path id="STROKE_BD62456F-54E9-4AB2-AE98-9A1C3BD85549" data-name="STROKE BD62456F-54E9-4AB2-AE98-9A1C3BD85549" class="cls-1" d="M124.12,4.67s0,.4-.05,1.22a23.49,23.49,0,0,0,.12,3c.12,1.17.19,1.81.22,1.93s0,.18,0,.19h0l-.26-1c-.18-.65-.3-1.09-.35-1.31a2.54,2.54,0,0,1-.08-.43q0-.12,0-1.08c0-.65,0-1,0-1.07a1.33,1.33,0,0,1,0-.19,7.76,7.76,0,0,1,.36-.73,6.76,6.76,0,0,1,.59-1,2.68,2.68,0,0,1,.41-.49,1.15,1.15,0,0,1,.28-.19,1.37,1.37,0,0,1,.31-.11,2.38,2.38,0,0,1,.62,0,2.12,2.12,0,0,1,.73.17,1.84,1.84,0,0,1,.45.27,3,3,0,0,1,.4.44,4.18,4.18,0,0,1,.4.65,3.94,3.94,0,0,1,.22.45c0,.07.06.23.11.49a10.35,10.35,0,0,1,.07,1.55q0,1.14-.09,1.8c-.05.43-.07.69-.07.75a1.07,1.07,0,0,0,0,.18.64.64,0,0,0,.05.17c0,.06.06.1.07.1s0,0,.09-.05a.24.24,0,0,0,.1-.1,2.12,2.12,0,0,0,.12-.37,8.44,8.44,0,0,0,.11-1.36c0-.69,0-1.07,0-1.15s0-.2,0-.39,0-.61.08-1.28a4.49,4.49,0,0,1,.2-1.2,2.11,2.11,0,0,1,.26-.35,2.4,2.4,0,0,1,.37-.3,1.82,1.82,0,0,1,.32-.19.91.91,0,0,1,.25-.07,1.06,1.06,0,0,1,.24,0l.14,0a2,2,0,0,1,.29.16,4,4,0,0,1,.62.47l.44.4.39.46a5.76,5.76,0,0,1,.4.52,3,3,0,0,1,.2.37c.07.16.13.29.17.41s.12.63.26,1.56a8.82,8.82,0,0,0,.3,1.48c.06.06.1.08.11.07a.57.57,0,0,0,.08-.08l.18-.28"/><path id="STROKE_1C0CD542-2C86-4C78-81EF-8677B71C3DB8" data-name="STROKE 1C0CD542-2C86-4C78-81EF-8677B71C3DB8" class="cls-1" d="M138.06,5.1c-.06-.18-.1-.31-.13-.39s-.06-.18-.09-.31-.07-.24-.1-.34a2.45,2.45,0,0,1-.07-.37,2.2,2.2,0,0,1,0-.44,2.06,2.06,0,0,1,0-.27,1.5,1.5,0,0,1,.09-.18.91.91,0,0,1,.17-.23,1.55,1.55,0,0,1,.29-.22,2.43,2.43,0,0,1,.45-.19,2.4,2.4,0,0,1,.41-.09h.25a2.48,2.48,0,0,1,.53.28,4.28,4.28,0,0,1,.79.59c.23.23.4.41.52.55s.27.37.49.69.36.55.44.68l.22.41.17.41c.05.14.1.29.14.45a3,3,0,0,1,.1.49,4.65,4.65,0,0,1,0,.76,3.15,3.15,0,0,1-.08.68,1.21,1.21,0,0,1-.15.33,1.79,1.79,0,0,1-.25.31,2.84,2.84,0,0,1-.36.29,3.57,3.57,0,0,1-.48.26,3.54,3.54,0,0,1-.57.22l-.57.15-.57.08a9.51,9.51,0,0,1-1.23,0,5.63,5.63,0,0,1-1.21-.14,2.43,2.43,0,0,1-.49-.22,3,3,0,0,1-.42-.33A3.2,3.2,0,0,1,136,8.6a4,4,0,0,1-.28-.43,2.2,2.2,0,0,1-.18-.43,2.68,2.68,0,0,1-.11-.5,5.26,5.26,0,0,1,0-1,4.85,4.85,0,0,1,.14-.95,2.66,2.66,0,0,1,.23-.52,5.16,5.16,0,0,1,.29-.46,4.78,4.78,0,0,1,.34-.42c.12-.12.26-.26.42-.4a4.2,4.2,0,0,1,.42-.33,1.94,1.94,0,0,1,.33-.2,2.18,2.18,0,0,1,.34-.14,3,3,0,0,1,.33-.1l.79-.14"/><path id="STROKE_54167081-21EF-4751-8A56-228ABB48E832" data-name="STROKE 54167081-21EF-4751-8A56-228ABB48E832" class="cls-1" d="M145.33,4.6l-.15-.38a.64.64,0,0,0-.06-.14.47.47,0,0,0-.05-.1l0-.07s0,0,0,0a1,1,0,0,0,.06.13c0,.07.17.31.4.71s.42.77.57,1.09a7.44,7.44,0,0,1,.4.93c.11.3.18.54.23.71s.1.46.16.87a8.13,8.13,0,0,1,.11.88,1.19,1.19,0,0,1,0,.29l0,0,0,0a.69.69,0,0,1-.09-.18,8.91,8.91,0,0,1-.28-1c-.15-.56-.24-.94-.28-1.16s-.07-.41-.09-.55,0-.29,0-.42L146,5.55a10.8,10.8,0,0,1,.09-1.62,10,10,0,0,1,.15-1.12.47.47,0,0,1,.1-.11.71.71,0,0,1,.14-.1l.13-.08.5-.12a7.23,7.23,0,0,1,1.43-.09,6.22,6.22,0,0,1,1.05,0l.16.08a5,5,0,0,1,.46.43,7.25,7.25,0,0,1,.59.67,3.46,3.46,0,0,1,.3.44.91.91,0,0,1,.1.2.5.5,0,0,1,.05.13"/><path id="STROKE_443B54A5-98D9-4CBA-AADE-A5A07C3B93E5" data-name="STROKE 443B54A5-98D9-4CBA-AADE-A5A07C3B93E5" class="cls-1" d="M153.47,5.93l.23-.18a4.84,4.84,0,0,1,.76-.29,7.56,7.56,0,0,1,1-.28,21.55,21.55,0,0,1,2.26-.07l2.12,0a2.08,2.08,0,0,0,.59-.17,1.45,1.45,0,0,0,.37-.18.53.53,0,0,0,0-.23.83.83,0,0,0,0-.25,3.2,3.2,0,0,0-.19-.3,5.09,5.09,0,0,0-.5-.59l-.65-.65-.46-.44-.21-.2a1.3,1.3,0,0,0-.22-.17,2.22,2.22,0,0,0-.34-.22,2.45,2.45,0,0,0-1.11-.25l-.54,0-.14,0-.13,0-.11.07-.38.35A8.47,8.47,0,0,0,155,3.08a9.52,9.52,0,0,0-.74,1.17,4,4,0,0,0-.19.42c0,.07-.05.13-.07.19l-.06.18c0,.06,0,.12,0,.18s0,.14-.05.23,0,.25-.07.51a9,9,0,0,0,0,1.11,8.44,8.44,0,0,0,.06.88,2.56,2.56,0,0,0,.09.26,1.71,1.71,0,0,0,.14.26,2.35,2.35,0,0,0,.19.25,2.23,2.23,0,0,0,.27.28,3.3,3.3,0,0,0,.3.27l.37.25a3.61,3.61,0,0,0,.44.22c.15.06.4.15.78.26l.76.2.31.05c.09,0,.65,0,1.69-.09a10.65,10.65,0,0,0,1.58-.17.53.53,0,0,0,.06-.13c0-.06,0-.17.08-.32s.07-.34.11-.56"/><path id="STROKE_FD08A88B-2611-409C-926C-6FC617DFDAF1" data-name="STROKE FD08A88B-2611-409C-926C-6FC617DFDAF1" class="cls-1" d="M173.53,1.23a2.17,2.17,0,0,0-.08-.22s0,0,0,0v.08s0,.14.08.36.17.76.36,1.64.29,1.35.3,1.44,0,.2,0,.34.08.5.17,1.07.15,1,.19,1.15.07.42.13.69.14.65.26,1.17.2.84.25,1a.64.64,0,0,0,.07.18h0V10c0-.1,0-.29,0-.55"/><path id="STROKE_50750CCB-D6F2-43B3-B83E-A313006B027E" data-name="STROKE 50750CCB-D6F2-43B3-B83E-A313006B027E" class="cls-1" d="M180.58,4.31l-2,0-.28,0-.61,0-.69.06-.43,0-.43,0-.75.11c-.35,0-.85.11-1.47.17a4.59,4.59,0,0,1-1.52,0,3.34,3.34,0,0,1-.6-.16l-.14-.37"/><path id="STROKE_F5E595E4-CB55-42C1-ACD7-AC629EE7BA2B" data-name="STROKE F5E595E4-CB55-42C1-ACD7-AC629EE7BA2B" class="cls-1" d="M180,1.49a.37.37,0,0,1,.1-.11h0a1.68,1.68,0,0,1,.08.2,2.32,2.32,0,0,1,.08.3c0,.07,0,.14,0,.21s0,.16,0,.25,0,.17,0,.25,0,.16,0,.28.05.31.09.61.13.78.25,1.43.26,1.41.43,2.25.3,1.44.4,1.8a6.14,6.14,0,0,0,.21.72c0,.13.09.19.1.18s0,0,0-.11a2.54,2.54,0,0,0,0-.26c0-.11,0-.23,0-.37s-.05-.29-.08-.46-.1-.45-.19-.86-.16-.78-.21-1.1a5.34,5.34,0,0,1-.08-.69,5.39,5.39,0,0,1,.1-.79,4.39,4.39,0,0,1,.16-.7,1.59,1.59,0,0,1,.17-.27A1.9,1.9,0,0,1,182,4l.15-.13.17-.11.19-.11.38-.15a4.43,4.43,0,0,1,.74-.16,2.21,2.21,0,0,1,.73,0,1,1,0,0,1,.37.12,1,1,0,0,1,.23.23,2.15,2.15,0,0,1,.27.46,4.2,4.2,0,0,1,.19.47,3.84,3.84,0,0,1,.11.4,3.6,3.6,0,0,1,.08.37c0,.11,0,.27.08.47s.06.38.09.56.05.36.07.55,0,.37.07.52L186,8a4.84,4.84,0,0,1,.06.5c0,.15,0,.46.08.93a6.67,6.67,0,0,1,0,.75c0,.05,0,0,0,0a2.19,2.19,0,0,1-.07-.23c0-.1,0-.22-.08-.38s-.07-.37-.13-.66"/><path id="STROKE_7F40DD71-AB99-486C-889A-4620BEA66661" data-name="STROKE 7F40DD71-AB99-486C-889A-4620BEA66661" class="cls-1" d="M192.93,5.43c.1-.14.17-.24.21-.31a1.15,1.15,0,0,0,.12-.25,4.49,4.49,0,0,0,0-1,3,3,0,0,0-.09-1,.67.67,0,0,0-.25-.25,1.13,1.13,0,0,0-.48-.11,1.52,1.52,0,0,0-.42,0,1.76,1.76,0,0,0-.38.2,2.39,2.39,0,0,0-.43.32,7.38,7.38,0,0,0-.54.58c-.25.28-.42.49-.51.61s-.24.33-.45.65-.39.62-.55.93-.27.54-.33.67-.12.36-.21.66-.15.5-.17.61a6.18,6.18,0,0,0-.07.69,4.62,4.62,0,0,0,.05,1,4.36,4.36,0,0,0,.11.6,1.13,1.13,0,0,0,.1.13.58.58,0,0,0,.15.11.76.76,0,0,0,.2.08,3.72,3.72,0,0,0,.63,0,3.37,3.37,0,0,0,.8-.07,2.44,2.44,0,0,0,.59-.24,3.68,3.68,0,0,0,.58-.39,4.54,4.54,0,0,0,.51-.45c.15-.15.28-.28.38-.4a2.42,2.42,0,0,0,.27-.36,3.9,3.9,0,0,0,.22-.36,2.33,2.33,0,0,0,.14-.33,3.39,3.39,0,0,0,.11-.52,4.91,4.91,0,0,0,0-.79,4.3,4.3,0,0,0,0-.61,3.27,3.27,0,0,0-.05-.35c0-.11,0-.19,0-.23a.28.28,0,0,1,0-.06s0,.13,0,.4v.63c0,.15,0,.32,0,.5s0,.58,0,1.23,0,1,.05,1a.41.41,0,0,0,.05.09l.07.08s.21.13.52.32a6.79,6.79,0,0,0,1,.49,4.8,4.8,0,0,0,.71.26,2.92,2.92,0,0,0,.44.06,5.26,5.26,0,0,0,.78-.08,3.67,3.67,0,0,0,.62-.14.35.35,0,0,0,.1-.11.37.37,0,0,0,.07-.14.8.8,0,0,0,0-.26,1.37,1.37,0,0,0,0-.36,4.2,4.2,0,0,0-.16-.58"/><path id="STROKE_E736BB90-65B0-4822-99F7-E56BB22A50AA" data-name="STROKE E736BB90-65B0-4822-99F7-E56BB22A50AA" class="cls-1" d="M197.05,5a.67.67,0,0,1,.22.18,1.41,1.41,0,0,1,.13.24c0,.08.07.19.1.3l.08.31c0,.08,0,.17,0,.28s.06.33.11.67.1.61.12.8.06.35.09.5.05.29.08.44.06.29.09.41.08.35.17.68a5.24,5.24,0,0,0,.25.71l.11.22s0-.06,0-.17,0-.22,0-.33,0-.21,0-.32,0-.27-.07-.5-.06-.41-.08-.54,0-.65.06-1.55a9.61,9.61,0,0,1,.13-1.46,1.23,1.23,0,0,1,.1-.2c0-.06.09-.14.16-.23l.24-.3a7.07,7.07,0,0,1,.5-.51,6.35,6.35,0,0,1,.58-.51,3.68,3.68,0,0,1,.36-.24,2.77,2.77,0,0,1,.48-.18,2.92,2.92,0,0,1,.52-.12,2.17,2.17,0,0,1,.55,0,2,2,0,0,1,.43.06l.15.08.15.11A1.47,1.47,0,0,1,203,4a4.4,4.4,0,0,1,.21.41c.09.21.16.38.21.53s.1.38.17.71.17,1,.3,2.14.22,1.71.25,1.83.08.36.16.73l.15.6,0,.06,0,0s0-.09-.07-.21-.2-.53-.48-1.22"/><path id="STROKE_EC975F1C-6272-4B3A-B8D5-87A4E1B2D75C" data-name="STROKE EC975F1C-6272-4B3A-B8D5-87A4E1B2D75C" class="cls-1" d="M119.56,19.43c.06-.58.1-.92.11-1a.63.63,0,0,1,0-.16s0,0,0,0a1.48,1.48,0,0,1,.07.29,4.27,4.27,0,0,1,.1.49q0,.21.15,2.82c.08,1.74.12,2.61.13,2.62h0a0,0,0,0,0,0,0l0,0s.08-.21.2-.6.21-.66.25-.84.08-.31.1-.39l.06-.22c0-.07.11-.3.28-.71s.34-.74.49-1a4.74,4.74,0,0,1,.49-.72,1.31,1.31,0,0,1,.38-.35.32.32,0,0,1,.19,0s.12.08.22.21a1.58,1.58,0,0,1,.24.39c.06.13.13.3.21.52l.21.5.12.27.48.93c.29.56.46.9.52,1s.18.33.37.67a4.56,4.56,0,0,0,.45.69,1.11,1.11,0,0,0,.26.25A.48.48,0,0,0,126,25h.11l.09,0,.1-.1a1,1,0,0,0,.13-.2,5.29,5.29,0,0,0,.18-.69,7.09,7.09,0,0,0,.18-1c0-.31,0-1.21,0-2.69s0-2.22,0-2.2,0,.08,0,.21"/><path id="STROKE_77776759-F626-400E-A165-0AA41216CBFD" data-name="STROKE 77776759-F626-400E-A165-0AA41216CBFD" class="cls-1" d="M131.08,21.13a1.64,1.64,0,0,0,0-.38,1.36,1.36,0,0,0,0-.36A2.58,2.58,0,0,0,131,20c0-.12-.05-.22-.07-.31a1,1,0,0,1,0-.3.79.79,0,0,1,0-.25,1.34,1.34,0,0,1,.11-.25,1.66,1.66,0,0,1,.38-.4,1.92,1.92,0,0,1,.64-.37,2.66,2.66,0,0,1,1-.12,3.79,3.79,0,0,1,1.11.18,3.94,3.94,0,0,1,.65.26,4,4,0,0,1,.47.31,3.75,3.75,0,0,1,.43.34,2.84,2.84,0,0,1,.23.25,2.34,2.34,0,0,1,.2.27c.06.09.12.21.19.34a2.79,2.79,0,0,1,.15.39,3,3,0,0,1,.11.45,4.8,4.8,0,0,1,0,.84,4.74,4.74,0,0,1-.07.84,3,3,0,0,1-.19.5,3,3,0,0,1-.28.44,3.33,3.33,0,0,1-.42.42,3.75,3.75,0,0,1-.51.38,3.59,3.59,0,0,1-.59.29,4,4,0,0,1-.62.19l-.61.09h-.55a2.42,2.42,0,0,1-.47-.07,1.82,1.82,0,0,1-.44-.17,2.4,2.4,0,0,1-.41-.29,2.27,2.27,0,0,1-.37-.44,3,3,0,0,1-.31-.57,4.28,4.28,0,0,1-.2-.52q0-.18-.09-.45a11.64,11.64,0,0,1,.07-1.52,7.43,7.43,0,0,1,.18-1.41.86.86,0,0,1,.13-.21L131,19l.13-.09a.33.33,0,0,1,.12-.05,1.53,1.53,0,0,1,.3,0,3.68,3.68,0,0,1,.84.16"/><path id="STROKE_32574B79-7614-4DAA-A001-CB79C1917F47" data-name="STROKE 32574B79-7614-4DAA-A001-CB79C1917F47" class="cls-1" d="M138.78,19.87l.08.21.16.43c.08.2.14.35.19.46s.17.37.37.82.34.74.42.9.16.42.27.75a9,9,0,0,1,.29,1c.08.36.12.55.12.59s0,.06,0,.06l0-.05s0-.09-.06-.16-.06-.29-.12-.65a18.12,18.12,0,0,1-.07-2.52,20.68,20.68,0,0,1,.06-2.09,2.35,2.35,0,0,1,.11-.24c.05-.1.14-.25.28-.47a4.33,4.33,0,0,1,.43-.56c.15-.16.24-.26.29-.3l.15-.09a1,1,0,0,1,.27-.09,4.66,4.66,0,0,1,.88,0,3.68,3.68,0,0,1,1,.12,2.08,2.08,0,0,1,.6.29,1.57,1.57,0,0,1,.39.32,1,1,0,0,1,.17.27.66.66,0,0,1,.06.22.39.39,0,0,1,0,.15,1.68,1.68,0,0,1-.14.28"/><path id="STROKE_761352E6-91A2-48C5-9654-3387FDE2E6BA" data-name="STROKE 761352E6-91A2-48C5-9654-3387FDE2E6BA" class="cls-1" d="M152.39,19.91l.2-.12a.76.76,0,0,0,.14-.16,1.51,1.51,0,0,0,.11-.52,1.92,1.92,0,0,0,0-.5,1.57,1.57,0,0,0-.13-.3,1.66,1.66,0,0,0-.26-.36,1.45,1.45,0,0,0-.29-.27,2,2,0,0,0-.28-.19,1.81,1.81,0,0,0-.31-.13,2.93,2.93,0,0,0-.54-.11,3.26,3.26,0,0,0-.77,0,2.36,2.36,0,0,0-.54.08,1.28,1.28,0,0,0-.29.12,4.17,4.17,0,0,0-.45.32,4.34,4.34,0,0,0-.47.42,6.88,6.88,0,0,0-.48.55,6.78,6.78,0,0,0-.54.78,8.83,8.83,0,0,0-.44.92,5.47,5.47,0,0,0-.28.92,5.06,5.06,0,0,0,0,1.37,6.06,6.06,0,0,0,.16,1,.41.41,0,0,0,.11.07l.22.06a6.22,6.22,0,0,0,.9.07,10,10,0,0,0,1.11,0,7.22,7.22,0,0,0,.76-.1l.69-.16.71-.2.73-.23L153,23l.59-.18.09,0h0l-.11,0-.45.19"/><path id="STROKE_624FFCC9-E530-4176-A847-16253609303F" data-name="STROKE 624FFCC9-E530-4176-A847-16253609303F" class="cls-1" d="M153.18,15.89a2.35,2.35,0,0,0-.07-.26s0,0-.06,0a6.17,6.17,0,0,0-.06,1.11c0,.7,0,1.1,0,1.21s0,.32.08.64.08.59.11.8,0,.43.08.66l.09.68c0,.22,0,.46.07.73s.06.74.12,1.4.09,1.13.11,1.41,0,.61.08,1,.05.55.06.6l0,.08s0-.13.05-.41.06-1,.08-2.16"/><path id="STROKE_2E324D25-3251-41D8-B26B-BBD9F8C92762" data-name="STROKE 2E324D25-3251-41D8-B26B-BBD9F8C92762" class="cls-1" d="M160.61,19a1.24,1.24,0,0,0,0-.33.91.91,0,0,0-.34-.59,1.69,1.69,0,0,0-.33-.17,2.68,2.68,0,0,0-.47-.12,3.46,3.46,0,0,0-.56,0,3,3,0,0,0-.42,0l-.27.08a3.58,3.58,0,0,0-.4.2,4.11,4.11,0,0,0-.51.34,3.1,3.1,0,0,0-.35.31,3.92,3.92,0,0,0-.29.39,4.12,4.12,0,0,0-.35.7,3,3,0,0,0-.19.6.65.65,0,0,0,0,.29.87.87,0,0,0,.06.13l.25.1a1.88,1.88,0,0,0,.57.1,2.81,2.81,0,0,0,.49,0l.34,0,.6-.13,1-.19c.35-.06.68-.1,1-.12a4.66,4.66,0,0,1,1,.06,2.5,2.5,0,0,1,.65.16,1.12,1.12,0,0,1,.22.16,1.79,1.79,0,0,1,.28.35,2.94,2.94,0,0,1,.24.43,2.06,2.06,0,0,1,.12.35,2.54,2.54,0,0,1,.07.44,3.79,3.79,0,0,1,0,.68,3.06,3.06,0,0,1-.06.6,1.75,1.75,0,0,1-.11.35,1.45,1.45,0,0,1-.2.32,4,4,0,0,1-.69.54,6.18,6.18,0,0,1-.84.51,2.67,2.67,0,0,1-.57.16,6,6,0,0,1-1,.06,4.56,4.56,0,0,1-1-.07,1.93,1.93,0,0,1-.46-.19,2,2,0,0,1-.44-.35,6.44,6.44,0,0,1-.66-.75"/><path id="STROKE_9990DF27-421C-40E8-9996-2987C144FF79" data-name="STROKE 9990DF27-421C-40E8-9996-2987C144FF79" class="cls-1" d="M176.46,21.5l.23-.32a2.51,2.51,0,0,0,.29-.51,2.14,2.14,0,0,0,.18-.46,2.81,2.81,0,0,0,0-.65,3.49,3.49,0,0,0,0-.56,2.33,2.33,0,0,0-.17-.36,2.23,2.23,0,0,0-.22-.34,2.48,2.48,0,0,0-.34-.3,2.09,2.09,0,0,0-.49-.3,2.89,2.89,0,0,0-.59-.17,2.43,2.43,0,0,0-.59-.07,1.05,1.05,0,0,0-.3,0l-.19.06-.24.13a3.58,3.58,0,0,0-.47.42,6.78,6.78,0,0,0-.75.86,7.72,7.72,0,0,0-.69,1,8,8,0,0,0-.41.78c-.07.16-.17.43-.29.8s-.18.62-.21.77a3.92,3.92,0,0,0-.06.63,1.78,1.78,0,0,0,0,.56.51.51,0,0,0,.08.18,5.34,5.34,0,0,0,.7.13,5.28,5.28,0,0,0,.95.09,4.51,4.51,0,0,0,.53-.08l1-.2.92-.2.53-.13a1.81,1.81,0,0,0,.4-.17.51.51,0,0,0,.13-.13,1.08,1.08,0,0,0,0-.17,2.54,2.54,0,0,0,0-.3c0-.13,0-.37,0-.71s0-.57,0-.7a2.6,2.6,0,0,1,0-.28.53.53,0,0,1,0-.11.14.14,0,0,1,0-.06,5.3,5.3,0,0,1,.23.92c.13.63.21,1,.23,1.05a.8.8,0,0,0,.06.17s0,.07,0,.11l.06.13.08.16c0,.06.1.19.2.36s.24.38.4.61.29.39.36.47a1.73,1.73,0,0,0,.24.23l.23.18a2.09,2.09,0,0,0,.26.13,1.52,1.52,0,0,0,.28.09,4.6,4.6,0,0,0,.58,0,2.74,2.74,0,0,0,.6,0,1.49,1.49,0,0,0,.37-.13,2.25,2.25,0,0,0,.36-.24,2.3,2.3,0,0,0,.27-.28,4.21,4.21,0,0,0,.36-.59,5,5,0,0,0,.3-.63c0-.13.1-.37.19-.74"/><path id="STROKE_99633CB3-26DA-42A9-97CD-E5352C431249" data-name="STROKE 99633CB3-26DA-42A9-97CD-E5352C431249" class="cls-1" d="M182,17.27l-.13-.25-.08-.11,0,0,0,.06a.43.43,0,0,0,0,.19,3.3,3.3,0,0,0,.08.38c0,.16.11.48.22,1s.22,1.14.34,2,.17,1.33.19,1.52.05.56.1,1.12.1,1.16.17,1.76.12.19.13-1.27"/><path id="STROKE_5DCFB173-D8AB-4319-9976-1BE287A744CF" data-name="STROKE 5DCFB173-D8AB-4319-9976-1BE287A744CF" class="cls-1" d="M187.42,21.86l-.06-.07a2.31,2.31,0,0,1-.1-.21,1.1,1.1,0,0,1-.12-.33,2.5,2.5,0,0,1,0-.65,2.33,2.33,0,0,1,.09-.63.82.82,0,0,1,.11-.18,1.09,1.09,0,0,1,.26-.16,1.73,1.73,0,0,1,.47-.15,4.15,4.15,0,0,1,.95,0,4.22,4.22,0,0,1,.81.06,1.33,1.33,0,0,1,.24.1,2,2,0,0,1,.33.22,2.46,2.46,0,0,1,.31.27l.18.21a1.76,1.76,0,0,1,.14.23c0,.08.09.17.13.25a1.63,1.63,0,0,1,.1.29c0,.1.05.21.07.3a9.18,9.18,0,0,1,0,1.2,8.79,8.79,0,0,1-.1,1.21,1.79,1.79,0,0,1-.18.37,3.18,3.18,0,0,1-.27.37,4.07,4.07,0,0,1-.36.36,3,3,0,0,1-.88.55,3.44,3.44,0,0,1-.46.15,2.68,2.68,0,0,1-.43.05,1.51,1.51,0,0,1-.38,0,1.74,1.74,0,0,1-.29-.07,1.78,1.78,0,0,1-.32-.2,1.39,1.39,0,0,1-.32-.32,1.67,1.67,0,0,1-.24-.37,2.6,2.6,0,0,1-.15-.42,9.76,9.76,0,0,1,0-1.64,7.94,7.94,0,0,1,.14-1.64,2.14,2.14,0,0,1,.17-.37,3.35,3.35,0,0,1,.2-.35,2.75,2.75,0,0,1,.23-.33c.08-.11.15-.21.22-.29l.27-.34"/><path id="STROKE_0B98DCBD-4411-4603-B46D-6243F6109297" data-name="STROKE 0B98DCBD-4411-4603-B46D-6243F6109297" class="cls-1" d="M193.86,20c0-.13-.05-.2-.06-.23s0,0,0,0,0,.09.09.23l.16.42c.06.15.11.27.14.36s.17.44.41,1,.37.95.4,1l.1.27q0,.13.24.84c.13.48.21.83.25,1.07a4.07,4.07,0,0,1,0,.47c0,.08,0,.13,0,.14s0,0,0,0a.15.15,0,0,1-.07-.06,1.18,1.18,0,0,1-.11-.18,1.54,1.54,0,0,1-.15-.37,3.67,3.67,0,0,1-.16-.53,5.41,5.41,0,0,1-.12-.58,3.63,3.63,0,0,1-.07-.51c0-.14,0-.69,0-1.65a12.61,12.61,0,0,1,.11-1.6c0-.12.09-.25.15-.4s.13-.3.2-.45a4.56,4.56,0,0,1,.27-.46,4.81,4.81,0,0,1,.53-.67,4,4,0,0,1,.59-.59,2.27,2.27,0,0,1,.48-.29,2.08,2.08,0,0,1,.41-.16l.29-.05a2.58,2.58,0,0,1,.53.05,2.64,2.64,0,0,1,.49.11l.22.13a1.77,1.77,0,0,1,.29.33,3,3,0,0,1,.29.44,5.69,5.69,0,0,1,.26.57c.11.25.18.45.23.59a4.1,4.1,0,0,1,.11.4c0,.12.1.55.21,1.3s.17,1.2.19,1.34,0,.29,0,.42,0,.27,0,.41,0,.27,0,.4,0,.35.07.63a4,4,0,0,0,.08.54c0,.08,0,.07,0,0s0-.24,0-.41,0-.49-.08-1"/><path id="STROKE_10C2656A-9ABD-4AE0-9EAC-9E9BC7DDC64E" data-name="STROKE 10C2656A-9ABD-4AE0-9EAC-9E9BC7DDC64E" class="cls-1" d="M203,21.35l.11.06.09,0,.08,0a.94.94,0,0,0,.17,0,6.43,6.43,0,0,0,1-.32l1.06-.39c.12-.05.46-.15,1-.31s1.07-.32,1.61-.46l.95-.25.29-.08.93-.33a7.43,7.43,0,0,0,.8-.31.07.07,0,0,0,0-.06l-.07-.1c0-.05-.2-.21-.48-.47a8,8,0,0,0-.68-.56,5.12,5.12,0,0,0-.44-.28l-.4-.2-.43-.2-.4-.19-.27-.12-.38-.15a3.37,3.37,0,0,0-.5-.15,1.34,1.34,0,0,0-.35-.06h-.21a.56.56,0,0,0-.15,0,2.2,2.2,0,0,0-.44.32,4.66,4.66,0,0,0-.66.67,8.27,8.27,0,0,0-.66,1c-.23.39-.37.63-.42.73s-.1.24-.17.42-.13.38-.19.58a5.25,5.25,0,0,0-.14.71,8.51,8.51,0,0,0,0,1.31,7.12,7.12,0,0,0,.12,1,1,1,0,0,0,.11.21l.15.19a2.23,2.23,0,0,0,.22.21l.28.22.29.18a2.71,2.71,0,0,0,.37.17,2.85,2.85,0,0,0,.41.14,2.22,2.22,0,0,0,.37.09c.12,0,.7,0,1.76,0a16.26,16.26,0,0,0,1.78-.05l.47-.12.35-.1.11,0s0,0,0,0l-.23.05-.89.18"/><path id="STROKE_24E4332F-4448-4B39-A367-EF474FA94469" data-name="STROKE 24E4332F-4448-4B39-A367-EF474FA94469" class="cls-1" d="M160.24,33.3q0-.15,0-.24a1.15,1.15,0,0,1,0-.14l0-.07v0s0,0,0,.07,0,2,0,5.89,0,5.83,0,5.91a2.07,2.07,0,0,0,0,.22l0,.12h0l0,0,.28-.73c.18-.47.33-.82.44-1.06s.22-.45.32-.62.18-.33.25-.46.15-.26.23-.39.16-.25.24-.35l.25-.35c.1-.13.21-.25.32-.38s.22-.24.33-.34l.27-.24a.85.85,0,0,1,.27-.13q.15-.06.18.12a1.54,1.54,0,0,1-.1.54q-.12.39-.18.54c0,.11-.1.29-.19.56s-.2.58-.32.93-.21.67-.3,1l-.3,1c-.1.38-.2.7-.29,1a1.79,1.79,0,0,1-.22.49q-.09.09-.12.09h-.06l-.11-.1a2.55,2.55,0,0,1-.24-.27l-.24-.3-.25-.29a3,3,0,0,0-.21-.23l-.15-.13-.25-.16c-.12-.08-.45-.23-1-.48s-.84-.4-1-.47a2.85,2.85,0,0,1-.33-.25l-.39-.38-.41-.39a1.54,1.54,0,0,0-.27-.19.52.52,0,0,0-.16-.06h-.11l-.06,0s0,0,0,.06a7.76,7.76,0,0,0,1.1.13,7.4,7.4,0,0,0,1.3,0l.33,0,.23-.06.31-.09.33-.11.39-.14.42-.16.62-.28.64-.31.25-.14.08,0h0l-.06,0"/><path id="STROKE_E4D00F60-1C8F-4E43-B945-30407B73CCD1" data-name="STROKE E4D00F60-1C8F-4E43-B945-30407B73CCD1" class="cls-1" d="M131.66,58.82l-.38-.17c-.12-.06-.34-.15-.68-.28a7.75,7.75,0,0,0-.79-.26,2.13,2.13,0,0,0-.55,0,1.08,1.08,0,0,0-.39.07,4.88,4.88,0,0,0-1.28,1.52,2.38,2.38,0,0,0-.19.61,1,1,0,0,0,.06.36.92.92,0,0,0,.12.23.53.53,0,0,0,.13.13l.11.08.16,0a9.34,9.34,0,0,0,1.2.12l2.32.14a9.46,9.46,0,0,1,1.38.13l.22.08.18.12a1.92,1.92,0,0,1,.23.19,3.22,3.22,0,0,1,.26.31,4.54,4.54,0,0,1,.3.53,2.93,2.93,0,0,1,.2.55,2.3,2.3,0,0,1,.07.42,1.55,1.55,0,0,1,0,.29l0,.19a1.34,1.34,0,0,1-.07.18,2.17,2.17,0,0,1-.27.35,4.39,4.39,0,0,1-.74.62,6.86,6.86,0,0,1-.74.48A4.62,4.62,0,0,1,132,66a3.64,3.64,0,0,1-.47.14,5.13,5.13,0,0,1-.51.1,5.51,5.51,0,0,1-.57.06,6.19,6.19,0,0,1-.86,0,4,4,0,0,1-.79-.13,1.05,1.05,0,0,1-.32-.16,1.55,1.55,0,0,1-.28-.26,3.87,3.87,0,0,1-.4-.59,4.92,4.92,0,0,1-.31-.62,2.83,2.83,0,0,1-.11-.44c0-.16-.06-.51-.1-1"/><path id="STROKE_74F2FC1F-AC8C-4431-BD82-87CA5DF390D7" data-name="STROKE 74F2FC1F-AC8C-4431-BD82-87CA5DF390D7" class="cls-1" d="M135.67,56.28l-.11-.15-.08-.09a2.94,2.94,0,0,0-.12.58,4.39,4.39,0,0,0-.08.74c0,.1.05.36.14.79s.14.72.18.88.07.31.1.45.07.3.11.46l.13.54c.05.2.09.39.14.56s.09.37.15.6.16.6.31,1.14.25.89.31,1.07.11.34.17.52l.18.45a2.25,2.25,0,0,0,.16.31,1,1,0,0,0,.08.14v0a.44.44,0,0,0,0-.09s0-.13-.06-.23"/><path id="STROKE_D5B74E6A-4A48-4982-84B8-142CD4C6DA86" data-name="STROKE D5B74E6A-4A48-4982-84B8-142CD4C6DA86" class="cls-1" d="M141.42,59.76l0,.05,0,0a.36.36,0,0,1-.13.05,2.23,2.23,0,0,1-.49.09l-.72.09-1,.09-.89.09-.52,0-.83.1-.74.1-.37,0-.52.06-.87.09"/><path id="STROKE_8CAFCCD0-9E7D-42DF-9ECB-70F7BE7535EF" data-name="STROKE 8CAFCCD0-9E7D-42DF-9ECB-70F7BE7535EF" class="cls-1" d="M142.15,60.8l.13-.27a3.08,3.08,0,0,1,.16-.28q.09-.11.12-.09a.61.61,0,0,1,.09.22,3.75,3.75,0,0,1,.1.39l.08.3q0,.12.12.42c.06.2.15.47.29.82s.26.67.38.95l.27.58.18.37c.06.14.12.25.15.33a3.27,3.27,0,0,1,.14.34c0,.15.08.24.09.29s0,.06,0,.06,0,0-.09,0a3.69,3.69,0,0,1-.29-.39c-.15-.22-.27-.4-.35-.54l-.18-.33c0-.08-.09-.25-.17-.53a6,6,0,0,1-.1-1.58,7.28,7.28,0,0,1,.07-1.31,1.59,1.59,0,0,1,.12-.27c0-.09.11-.18.17-.27a2.93,2.93,0,0,1,.18-.26l.25-.31q.16-.18.69-.66c.36-.33.58-.51.66-.57l.22-.13a2.31,2.31,0,0,1,.36-.11,4.38,4.38,0,0,1,.92,0,3.94,3.94,0,0,1,.79.06,1.55,1.55,0,0,1,.37.2,3.37,3.37,0,0,1,.5.42c.17.17.36.38.57.62l.45.55a1.34,1.34,0,0,0,.16.2"/><path id="STROKE_BF4A8CF3-8D71-4C4D-83B5-B894928F4810" data-name="STROKE BF4A8CF3-8D71-4C4D-83B5-B894928F4810" class="cls-1" d="M151.12,59.83l0-.14s0,.57.11,1.73a12.13,12.13,0,0,0,.2,1.94l.14.27.12.15a.51.51,0,0,0,.12.13L152,64l.2.11a8.2,8.2,0,0,0,1.31.05,7,7,0,0,0,1.43-.06,2,2,0,0,0,.46-.18,3.39,3.39,0,0,0,.39-.22l.38-.28a3.75,3.75,0,0,0,.35-.33l.24-.29a2.35,2.35,0,0,0,.14-.25,2.83,2.83,0,0,0,.09-.27,3.84,3.84,0,0,0,.06-.73,3.93,3.93,0,0,0,0-.77,3.21,3.21,0,0,0-.08-.36,5.33,5.33,0,0,0-.2-.52c-.11-.23-.21-.47-.33-.71s-.19-.43-.25-.55l-.22-.5-.19-.41-.08-.17"/><path id="STROKE_23F90918-B85F-48FD-AD30-1A89B3FD23FD" data-name="STROKE 23F90918-B85F-48FD-AD30-1A89B3FD23FD" class="cls-1" d="M165.2,60.19c0-.11,0-.17-.06-.2l0-.11c0-.05-.07-.15-.16-.32a4.8,4.8,0,0,0-.46-.67l-.38-.45-.2-.13a1.27,1.27,0,0,0-.32-.13,1.92,1.92,0,0,0-.52,0,2,2,0,0,0-.46,0,1.8,1.8,0,0,0-.35.16,2.14,2.14,0,0,0-.5.36,4.16,4.16,0,0,0-.46.48c-.13.18-.23.31-.29.41s-.13.26-.22.47a5.08,5.08,0,0,0-.23.69,2.87,2.87,0,0,0-.12.54,12.3,12.3,0,0,0,.23,2,.71.71,0,0,0,.12.18,1.1,1.1,0,0,0,.15.16l.19.15.23.14a2.06,2.06,0,0,0,.26.12l.31.12.34.1c.11,0,.78,0,2,0a14.86,14.86,0,0,0,2.27-.08,4.15,4.15,0,0,0,.58-.15l.23-.12.07-.06.06-.06"/><path id="STROKE_167FEEFE-78E9-4E37-B315-881ECBA7F25D" data-name="STROKE 167FEEFE-78E9-4E37-B315-881ECBA7F25D" class="cls-1" d="M169.69,56c0-.1-.06-.17-.07-.21l-.06-.11s-.07.09-.12.38a2.43,2.43,0,0,0,0,.75c0,.22.05.39.07.5s.09.34.19.67.22.76.38,1.25.26.82.31,1,.18.52.37,1.09l.54,1.53c.17.45.29.8.38,1s.19.59.32,1a6,6,0,0,1,.19.78.43.43,0,0,1,0,.2s0,.08,0,.08H172a1,1,0,0,1-.26-.1"/><path id="STROKE_8B0074AD-0809-4BD5-BC12-AA708DC2F2D0" data-name="STROKE 8B0074AD-0809-4BD5-BC12-AA708DC2F2D0" class="cls-1" d="M176.67,59.43l-.45,0-.38,0-.44,0-.51.06-.56.09-1.09.17-1.56.21-1,.11-.7.09-.67.1-.53.12-.52.12"/><path id="STROKE_FF43C945-4D82-4010-86E9-6C3207F101FB" data-name="STROKE FF43C945-4D82-4010-86E9-6C3207F101FB" class="cls-1" d="M177.54,60.41l.06-.15,0,0s0,.33,0,1,0,1.11.06,1.21a5.14,5.14,0,0,0,.16.58c.08.28.15.47.19.58s.12.26.21.43a4.17,4.17,0,0,0,.28.47,2.51,2.51,0,0,0,.32.41,2,2,0,0,0,.36.36,2.51,2.51,0,0,0,.43.31,3.58,3.58,0,0,0,.52.25,6,6,0,0,0,.62.17,6,6,0,0,0,1.45.11,4.08,4.08,0,0,0,.64-.1,2.66,2.66,0,0,0,.63-.25,2.71,2.71,0,0,0,.58-.4,2.46,2.46,0,0,0,.45-.51,3.17,3.17,0,0,0,.32-.54,2.93,2.93,0,0,0,.18-.52,2.45,2.45,0,0,0,.09-.46,2.83,2.83,0,0,0,0-.52,3.79,3.79,0,0,0-.07-.6,3.68,3.68,0,0,0-.16-.54,3.58,3.58,0,0,0-.24-.48,3.53,3.53,0,0,0-.24-.35l-.27-.26-.29-.23-.5-.31a3.63,3.63,0,0,1-.64-.47,1.24,1.24,0,0,1-.33-.36.5.5,0,0,1,0-.15.8.8,0,0,1,0-.16"/><path id="STROKE_A982BA3E-8F83-47BC-910B-DA67B7AE6AD0" data-name="STROKE A982BA3E-8F83-47BC-910B-DA67B7AE6AD0" class="cls-1" d="M187.24,59.9l.07.1.26.36.56.8.61.86.39.53.22.31c.06.09.12.19.2.3s.14.22.21.35a3.55,3.55,0,0,1,.2.39,2.75,2.75,0,0,1,.17.41,5.33,5.33,0,0,1,.16.66,2.23,2.23,0,0,1,.05.68,1.16,1.16,0,0,1-.06.23.08.08,0,0,1-.07,0,.49.49,0,0,1-.19-.1,3.54,3.54,0,0,1-.34-.34,6.33,6.33,0,0,1-.41-.54c-.13-.2-.27-.42-.4-.65s-.27-.52-.43-.85-.26-.58-.33-.76a6.55,6.55,0,0,1-.21-.66,6.73,6.73,0,0,1-.18-.71c-.05-.21-.08-.42-.11-.63a4.56,4.56,0,0,1-.05-.62,6.47,6.47,0,0,1,.08-1,5,5,0,0,1,.16-.87,1.74,1.74,0,0,1,.18-.33,1.29,1.29,0,0,1,.2-.25,1.26,1.26,0,0,1,.24-.19,2.46,2.46,0,0,1,.49-.24,4.66,4.66,0,0,1,.83-.23,3.87,3.87,0,0,1,.85-.07,2.46,2.46,0,0,1,.49,0l.27.07c.09,0,.23.1.42.19a3.5,3.5,0,0,1,.54.32,2.29,2.29,0,0,1,.34.25,3.82,3.82,0,0,1,.26.33,4.14,4.14,0,0,1,.33.56c.1.22.19.45.27.68s.12.41.15.55a1.46,1.46,0,0,1,0,.34,2.42,2.42,0,0,1-.06.28.42.42,0,0,0,0,.19s.09,0,.22,0a3.51,3.51,0,0,0,.71-.08l.62-.12.21-.06.22-.08.55-.2,1-.34.8-.24.46-.12.68-.15.6-.13.27-.07.2-.06.3-.15.27-.17a2.86,2.86,0,0,0,.16-.28,1.15,1.15,0,0,0,.08-.57,1.36,1.36,0,0,0-.07-.43.54.54,0,0,0-.14-.16.7.7,0,0,0-.21-.14A3.31,3.31,0,0,0,200,57l-.7-.24-.59-.19-.37-.12-.33-.08a6.81,6.81,0,0,0-1,0,6.18,6.18,0,0,0-.86,0,1.1,1.1,0,0,0-.3.16,1.9,1.9,0,0,0-.44.38,4.91,4.91,0,0,0-.56.72c-.23.32-.36.52-.41.6a1.64,1.64,0,0,0-.12.22c0,.07-.07.15-.1.23s-.11.28-.23.62-.21.62-.28.86a4.94,4.94,0,0,0-.15.65,4,4,0,0,0-.08.64,5.27,5.27,0,0,0,.1,1.05,4.2,4.2,0,0,0,.17.76,1.32,1.32,0,0,0,.17.17l.21.14.16.07c.06,0,.78,0,2.17.07s2.29,0,2.72,0a7,7,0,0,0,.78-.06q.13,0,.12-.06s0,0,0-.06l-.25-.24"/><path id="STROKE_C97B8F96-9F33-47B3-909E-3B00D4587D63" data-name="STROKE C97B8F96-9F33-47B3-909E-3B00D4587D63" class="cls-1" d="M314.82,97.72s0,0,0,0a1.74,1.74,0,0,0,0-.18,3.64,3.64,0,0,0-.1-.65,4.33,4.33,0,0,0-.17-.68,3.6,3.6,0,0,0-.2-.39,3.31,3.31,0,0,0-.34-.45c-.14-.16-.26-.3-.36-.4l-.26-.24a1,1,0,0,0-.17-.15l-.11-.1-.1-.08-.19-.15-.53-.37q-.39-.28-.66-.45l-.35-.23-.21-.13-.4-.24-.73-.48-.74-.5-.45-.31-.5-.32-.53-.32-.32-.17a2.82,2.82,0,0,0-.36-.15,12.67,12.67,0,0,0-1.32-.33l-1.31-.31-.32-.08-.2,0-.28-.07-1.31-.26-1.47-.27-.61-.1c-.18,0-1.31,0-3.39,0s-3.17,0-3.23,0l-.15,0-.38.11-.82.23-.77.22-.66.19-.91.24-1.12.29-.69.18-.18,0-.26.07-.22.06-.15,0-1.51.48-1.66.54-.36.1-.38.11-.38.11-.26.07-.24.07-.23.06-.26.08-.52.15-.83.24-.83.24-.49.14-.26.08-.25.07-.28.07-.48.13-.49.13-.32.08-.32.08-.9.2-.94.21-.37.07-.48.07-.44.07-.3,0-1,.12-1,.1h-.23l-1,0c-.59,0-.93,0-1-.06a2.9,2.9,0,0,1-.38-.07l-.36-.09-.42-.14-.48-.17-.77-.34-.71-.34-.24-.15-.32-.23a3.09,3.09,0,0,1-.39-.33,2.85,2.85,0,0,1-.3-.29c-.08-.08-.2-.24-.38-.47s-.34-.44-.46-.61l-.36-.48c-.11-.14-.23-.3-.37-.46l-.52-.61-.41-.45c-.07-.07-.18-.2-.34-.39s-.29-.35-.38-.48-.18-.27-.28-.43-.19-.33-.28-.51-.15-.3-.19-.38l-.21-.41c-.1-.19-.25-.46-.44-.78s-.35-.56-.45-.7-.18-.23-.23-.28a2.21,2.21,0,0,0-.25-.22,1.62,1.62,0,0,0-.33-.21.9.9,0,0,0-.33-.09.48.48,0,0,0-.3,0,1.28,1.28,0,0,0-.37.47,6.23,6.23,0,0,0-.42.86l-.28.67c-.06.15-.15.32-.25.54l-.23.45-.37.62L256,89c-.14.19-.23.33-.29.42l-.49.63c-.27.33-.56.68-.88,1s-.56.62-.71.77l-.45.43c-.14.13-.35.3-.6.49a8.88,8.88,0,0,1-1.09.69,6.76,6.76,0,0,1-1,.48,3.32,3.32,0,0,1-.49.14l-.39.09c-.12,0-1.34,0-3.68,0s-3.57,0-3.71-.07l-.75-.2-.83-.2-.39-.08-.19,0-.25,0-2.07-.09c-1.27,0-2-.08-2.12-.11l-.39-.08-.88-.25-1-.28-.45-.1c-.08,0-1.07,0-3,0h-3l-.27,0-.35,0-.32.05-.82.17-1.18.28-1.13.31-.9.29-.4.15-.42.18-.36.17-.65.32-.71.37c-.1,0-.3.18-.6.36l-.54.33-.21.15-.18.13-.17.13-.18.13-.28.22-1,.84c-.53.45-.85.73-.95.84a5.74,5.74,0,0,0-.4.5,7.21,7.21,0,0,0-.41.6l-.27.44c-.05.1-.11.2-.17.3l-.22.38-.21.34a.92.92,0,0,1-.12.16l0,0s0,0,0,0,0,0,0,0"/><path id="STROKE_9886DD18-E0EC-4B62-8CF2-7741744D24CC" data-name="STROKE 9886DD18-E0EC-4B62-8CF2-7741744D24CC" class="cls-1" d="M233.05,30.73c.19-.2.29-.31.29-.35a.17.17,0,0,0-.05-.14.33.33,0,0,0-.11-.1l-.19-.09a2.18,2.18,0,0,0-.39-.1,4.51,4.51,0,0,0-.72,0,5.54,5.54,0,0,0-.63,0L231,30c-.1,0-.24.1-.44.19a3.32,3.32,0,0,0-.43.25l-.27.18-.24.19-.2.18-.26.26c-.11.12-.19.22-.26.31a.92.92,0,0,0-.13.21,4.07,4.07,0,0,0,1.18.36l1.33.31.25.07.27.08.33.11.37.14.32.14a3.52,3.52,0,0,1,.35.16l.37.18,1,.56c.52.31.84.52,1,.61a3.06,3.06,0,0,1,.39.36,2.66,2.66,0,0,1,.26.33,2,2,0,0,1,.1.21.83.83,0,0,1,.06.21,1.85,1.85,0,0,1,0,.34,1.06,1.06,0,0,1,0,.36,1.09,1.09,0,0,1-.14.29,1.43,1.43,0,0,1-.26.31,2.5,2.5,0,0,1-.39.3,3.85,3.85,0,0,1-.57.27,6.16,6.16,0,0,1-.76.25,6.94,6.94,0,0,1-.82.16,9.79,9.79,0,0,1-1.26,0,4.94,4.94,0,0,1-1.11-.1,1.54,1.54,0,0,1-.43-.2,1.91,1.91,0,0,1-.35-.27,2.75,2.75,0,0,1-.28-.37,3.1,3.1,0,0,1-.21-.45,14.65,14.65,0,0,1-.21-1.74"/><path id="STROKE_40FBDE78-FCA6-460D-804D-4FADCCD195A7" data-name="STROKE 40FBDE78-FCA6-460D-804D-4FADCCD195A7" class="cls-1" d="M238.51,33.48l.2-.08.17-.09.3-.17a4.83,4.83,0,0,1,.45-.26l.37-.21c.09-.05.26-.12.51-.22l.56-.21.55-.13.72-.12a8,8,0,0,1,1.27,0c.6.05,1.07.1,1.39.16l.55.09a.45.45,0,0,0,.17-.1.39.39,0,0,0,.12-.16.9.9,0,0,0,0-.34,1.4,1.4,0,0,0-.05-.42,1.09,1.09,0,0,0-.09-.21l-.09-.14-.09-.11-.18-.15a2.11,2.11,0,0,0-.27-.18,2.25,2.25,0,0,0-.35-.18l-.46-.14a5.16,5.16,0,0,0-1,0,5.94,5.94,0,0,0-1.09.09,5.09,5.09,0,0,0-.55.18,2.17,2.17,0,0,0-.36.16l-.39.21c-.18.1-.39.23-.64.4a4.66,4.66,0,0,0-.52.4,1.58,1.58,0,0,0-.28.3,1.88,1.88,0,0,0-.21.31,2.28,2.28,0,0,0-.14.42,6.26,6.26,0,0,0-.08,1,6.82,6.82,0,0,0,0,.91,1.37,1.37,0,0,0,.07.24l.12.28a5.67,5.67,0,0,0,.34.53c.17.24.3.42.38.51l.28.28a3,3,0,0,0,.28.24l.28.18.32.17.37.14a3.61,3.61,0,0,0,.46.1,7,7,0,0,0,1,.05,7.6,7.6,0,0,0,1-.05,4,4,0,0,0,.51-.11,3.69,3.69,0,0,0,.42-.17,2.65,2.65,0,0,0,.7-.5,3,3,0,0,0,.32-.34c.07-.09.16-.23.28-.42"/><path id="STROKE_9038C0D6-6A72-41FC-A614-E9A8498754B8" data-name="STROKE 9038C0D6-6A72-41FC-A614-E9A8498754B8" class="cls-1" d="M249.12,28.48l-.13-.25-.06-.09s0,.23-.1.69a5.38,5.38,0,0,0-.07.81,3.29,3.29,0,0,0,.16.54c.1.28.2.55.31.8s.23.55.38.89.31.73.48,1.16.34.85.5,1.26.26.7.32.88.15.51.27,1a4,4,0,0,1,.16,1.08,1.17,1.17,0,0,1-.05.4.2.2,0,0,1-.11,0,.76.76,0,0,1-.21,0c-.08,0-.28-.13-.58-.29"/><path id="STROKE_B346565E-219A-49C2-9515-5459938673C5" data-name="STROKE B346565E-219A-49C2-9515-5459938673C5" class="cls-1" d="M255.09,30.33l.08.19a.86.86,0,0,0,0,.13.54.54,0,0,1,0,.11s-.09.11-.23.2a7.35,7.35,0,0,1-2,.24c-1.19.07-1.94.12-2.22.17l-.66.11-.78.22-1,.32-.61.22-.27.09-.2.07"/><path id="STROKE_B169B937-1621-4E0C-BCB8-DB1CA266AFFC" data-name="STROKE B169B937-1621-4E0C-BCB8-DB1CA266AFFC" class="cls-1" d="M266.67,33.16l.26,0,.19,0a.42.42,0,0,0,.21-.18,1,1,0,0,0,.13-.32c0-.12,0-.24,0-.35s0-.31.06-.57a2.52,2.52,0,0,1,.12-.52,1.26,1.26,0,0,1,.26-.33,1.57,1.57,0,0,1,.45-.31,1.69,1.69,0,0,1,.47-.15,1.58,1.58,0,0,1,.5,0,2,2,0,0,1,.42.07,2.27,2.27,0,0,1,.42.25,4.88,4.88,0,0,1,.65.55,8,8,0,0,1,.54.59,8.26,8.26,0,0,1,.54.72c.23.32.38.55.45.67l.18.37a3.31,3.31,0,0,1,.13.41,7.78,7.78,0,0,1,.13.91,6.16,6.16,0,0,1,0,1,3.35,3.35,0,0,1-.07.5,2.94,2.94,0,0,1-.17.43,2,2,0,0,1-.24.37,1.82,1.82,0,0,1-.34.34,2,2,0,0,1-.45.29,2.43,2.43,0,0,1-.6.23,3.46,3.46,0,0,1-.63.14,5.17,5.17,0,0,1-.76,0,4.36,4.36,0,0,1-.84-.05,3.48,3.48,0,0,1-.69-.18,4.76,4.76,0,0,1-.69-.37,4.43,4.43,0,0,1-.65-.5,5.1,5.1,0,0,1-.54-.62,5.61,5.61,0,0,1-.46-.71c-.12-.23-.2-.42-.26-.56a3.17,3.17,0,0,1-.13-.49,8.86,8.86,0,0,1,0-1.61,7.34,7.34,0,0,1,.18-1.53,2.59,2.59,0,0,1,.46-.58,3.28,3.28,0,0,1,.26-.22,2.33,2.33,0,0,1,.29-.19,2,2,0,0,1,.29-.14l1-.3"/><path id="STROKE_52FFC974-7B85-4659-A3AA-B9C1B7AA3B33" data-name="STROKE 52FFC974-7B85-4659-A3AA-B9C1B7AA3B33" class="cls-1" d="M280.64,29.39a5.58,5.58,0,0,0,.1-.68,3.34,3.34,0,0,0,0-.71,2.45,2.45,0,0,0-.07-.46,1.42,1.42,0,0,0-.08-.18,1,1,0,0,0-.13-.16,1.08,1.08,0,0,0-.26-.21,2.91,2.91,0,0,0-.32-.18,3.23,3.23,0,0,0-.43-.12,2.56,2.56,0,0,0-.62-.07,2.07,2.07,0,0,0-.47,0,2.79,2.79,0,0,0-.45.17,3.5,3.5,0,0,0-.62.35,5.23,5.23,0,0,0-.56.48,3.42,3.42,0,0,0-.36.4,4,4,0,0,0-.29.45,5.2,5.2,0,0,0-.32.61c-.09.19-.15.33-.18.41s0,.15-.07.22a1.74,1.74,0,0,0,0,.22,11,11,0,0,0,0,1.19c0,.72,0,1.14,0,1.24a1.94,1.94,0,0,0,.07.33,6.26,6.26,0,0,0,.24.64c.12.31.29.7.49,1.16s.38.9.53,1.32a6.39,6.39,0,0,1,.26.8,1.88,1.88,0,0,1,0,.33,2,2,0,0,1,0,.26.39.39,0,0,1-.08.2c0,.07-.07.11-.1.12h-.11l-.24-.11"/><path id="STROKE_CB4DFB1B-7744-46EE-9BCF-4F7A78B60040" data-name="STROKE CB4DFB1B-7744-46EE-9BCF-4F7A78B60040" class="cls-1" d="M281.18,31.81a.4.4,0,0,1,0,.13.13.13,0,0,1,0,.07.15.15,0,0,1-.06.09,8.77,8.77,0,0,1-1.21.27c-.78.15-1.23.24-1.36.25l-.93.07-.91.05h-1"/><path id="STROKE_65E82A16-42D1-40C8-9234-23FF695BEEF3" data-name="STROKE 65E82A16-42D1-40C8-9234-23FF695BEEF3" class="cls-1" d="M291.24,31l0,0s0,0,0,0a.56.56,0,0,1,.05.08l.08.26c0,.13.11.34.21.62l.21.54c0,.08.09.2.17.37s.14.32.19.45.12.32.22.6.21.74.35,1.38.22,1,.23,1.08a.59.59,0,0,1,0,.13l-.1-.52c-.07-.35-.14-.77-.22-1.26s-.13-.81-.15-1l-.06-.43c0-.13,0-.26,0-.37s0-.23,0-.39,0-.47.05-1a4.63,4.63,0,0,1,.09-.85,1.42,1.42,0,0,1,.08-.18,2.38,2.38,0,0,1,.22-.27c.11-.12.21-.22.31-.31s.25-.2.46-.34a4.3,4.3,0,0,1,.45-.29,2.1,2.1,0,0,1,.26-.13,1.34,1.34,0,0,1,.26-.09,2.36,2.36,0,0,1,.44-.07,3.36,3.36,0,0,1,.83.07,2.47,2.47,0,0,1,.75.23,1.73,1.73,0,0,1,.32.21,1,1,0,0,1,.14.15l.11.17a1.54,1.54,0,0,1,.08.19,1.25,1.25,0,0,1,.07.23l.06.25q0,.13,0,.66c0,.34,0,.56,0,.63"/><path id="STROKE_46B34CFB-4D1D-4C23-8620-91AA150C988F" data-name="STROKE 46B34CFB-4D1D-4C23-8620-91AA150C988F" class="cls-1" d="M299.38,30.69a.86.86,0,0,0,.07-.1l0,0,0,.06s0,.12-.06.25-.06.35-.1.65a7.86,7.86,0,0,0,0,1.32,9.47,9.47,0,0,0,.09,1,2,2,0,0,0,.1.21l.15.2.2.19a2.21,2.21,0,0,0,.26.19l.33.2.37.17a2.65,2.65,0,0,0,.37.12,10.28,10.28,0,0,0,1.75,0,10.55,10.55,0,0,0,1.67-.14,2.61,2.61,0,0,0,.2-.17,1.54,1.54,0,0,0,.17-.19,1,1,0,0,0,.15-.2,1.86,1.86,0,0,0,.23-.52,6.82,6.82,0,0,0,0-.94,5.58,5.58,0,0,0-.06-1,3.88,3.88,0,0,0-.29-.7,8.12,8.12,0,0,0-.46-.8c-.16-.23-.26-.38-.33-.46l-.18-.24-.37-.45-.42-.51"/><path id="STROKE_E25E5CA7-77BA-4AC4-96B3-245B68EC29A6" data-name="STROKE E25E5CA7-77BA-4AC4-96B3-245B68EC29A6" class="cls-1" d="M307.16,27h-.06a.16.16,0,0,0,0,.06,1.64,1.64,0,0,0,0,.33,1.79,1.79,0,0,0,.11.73,4.07,4.07,0,0,0,.18.52c.07.18.14.34.19.45l.14.33c0,.1.08.21.13.32s.09.24.13.35.12.41.24.86.25,1,.38,1.62.2,1,.23,1.19.05.34.08.52.05.35.07.54.05.39.08.61.05.37.06.43,0-.55.07-1.81"/><path id="STROKE_70B2357F-7D3D-4E3A-8C1A-2EA07800E045" data-name="STROKE 70B2357F-7D3D-4E3A-8C1A-2EA07800E045" class="cls-1" d="M312.2,31.46a.74.74,0,0,0,.13.12l.1.06h.09l.17-.05.32-.16.47-.22.42-.18.27-.09.25-.07.22-.05.18,0,2.78-.18c1.79-.11,2.69-.17,2.68-.2s0-.05,0-.08l-.07-.15q-.06-.11-.42-.6c-.25-.34-.44-.59-.58-.75a6.1,6.1,0,0,0-.41-.46c-.14-.13-.31-.29-.52-.46a4.4,4.4,0,0,0-.49-.36,1.85,1.85,0,0,0-.26-.16l-.25-.09a1.35,1.35,0,0,0-.3-.08c-.09,0-.39,0-.91,0a5.76,5.76,0,0,0-.93.08,2.51,2.51,0,0,0-.43.22,3.3,3.3,0,0,0-.54.42,5.12,5.12,0,0,0-.46.5c-.13.16-.22.29-.28.37s-.12.22-.21.41a5.55,5.55,0,0,0-.24.56c-.07.19-.13.38-.18.55a4.29,4.29,0,0,0-.11.54,6.83,6.83,0,0,0,.08,1.25,4.64,4.64,0,0,0,.21,1.12,1.8,1.8,0,0,0,.16.21.83.83,0,0,0,.15.11,1,1,0,0,0,.21.12l.52.21.6.2.78.17c.38.07.86.15,1.44.23l1,.11.16,0a.3.3,0,0,0,.14-.05l.12,0,.09-.07"/><path id="STROKE_1E098CFD-A561-482A-82AA-70F972568205" data-name="STROKE 1E098CFD-A561-482A-82AA-70F972568205" class="cls-1" d="M326.32,29.57c.08-.1.16-.18.21-.25l.15-.22a.85.85,0,0,0,.09-.24c0-.08,0-.13,0-.14v0a.28.28,0,0,0-.07-.11.63.63,0,0,0-.3-.16,6.61,6.61,0,0,0-1.33-.12,10.09,10.09,0,0,0-1.2,0,4.94,4.94,0,0,0-.69.28,8,8,0,0,0-1,.48,5.82,5.82,0,0,0-.6.37l-.45.36-.34.31-.17.2a.91.91,0,0,0-.11.16l-.05.07s.6.09,1.83.21,2,.21,2.19.27.41.1.55.15a2.86,2.86,0,0,1,.41.15,3.15,3.15,0,0,1,.43.19,2.59,2.59,0,0,1,.38.21,3.25,3.25,0,0,1,.34.25,2.23,2.23,0,0,1,.31.29,1.74,1.74,0,0,1,.22.27,1.91,1.91,0,0,1,.17.32,2.07,2.07,0,0,1,.14.42,5.16,5.16,0,0,1,0,.91,5.91,5.91,0,0,1-.09.93,2.39,2.39,0,0,1-.22.5,5.25,5.25,0,0,1-.33.49,6.38,6.38,0,0,1-.45.46,4.31,4.31,0,0,1-.5.41,4.86,4.86,0,0,1-.54.33,3.39,3.39,0,0,1-.56.22,2.59,2.59,0,0,1-.47.11,3.17,3.17,0,0,1-.44,0,1.76,1.76,0,0,1-.46-.06,2,2,0,0,1-.43-.14,2.46,2.46,0,0,1-.44-.28,3.76,3.76,0,0,1-.44-.45,5.8,5.8,0,0,1-.46-.74,8,8,0,0,1-.41-.91c-.11-.3-.22-.6-.31-.91s-.21-.68-.34-1.08"/><path id="STROKE_5371A7BC-6245-445C-8AF7-FC6A7CE0240B" data-name="STROKE 5371A7BC-6245-445C-8AF7-FC6A7CE0240B" class="cls-1" d="M232.41,47.81l-.53.12-.14,0h-.06l1.64-.14c1.12-.09,1.71-.15,1.76-.16l.19,0,.28-.07c.12,0,.39-.1.82-.21a3.89,3.89,0,0,0,.82-.28c.11-.07.17-.13.17-.16a.39.39,0,0,0,0-.16,2.14,2.14,0,0,0-.19-.33l-.2-.28-.3-.36c-.16-.2-.28-.34-.35-.41l-.15-.16-.09-.09L236,45a1.19,1.19,0,0,0-.16-.1,2.66,2.66,0,0,0-.47-.16,4.53,4.53,0,0,0-1.07-.14,7.21,7.21,0,0,0-.87,0,3,3,0,0,0-.52.21,5.93,5.93,0,0,0-.8.45,6.66,6.66,0,0,0-.77.61,7.62,7.62,0,0,0-.66.72,7.15,7.15,0,0,0-.59.91,7,7,0,0,0-.39.84,3.77,3.77,0,0,0-.16.7,4.07,4.07,0,0,0,0,.85,2.84,2.84,0,0,0,.1.57.66.66,0,0,0,.11.2l.17.19a1.6,1.6,0,0,0,.26.19l.34.2.42.19.48.17.5.14.89.15a15.13,15.13,0,0,0,1.81.14,5.06,5.06,0,0,0,1.68-.11,2,2,0,0,0,.49-.19.08.08,0,0,0,0,0,.51.51,0,0,0,0-.09"/><path id="STROKE_DACBF62A-7D2D-45F7-B093-2CF759306526" data-name="STROKE DACBF62A-7D2D-45F7-B093-2CF759306526" class="cls-1" d="M243.77,46.8q.06-.19.09-.33a1.67,1.67,0,0,1,.07-.19s0,0,0,0a5.62,5.62,0,0,1-.2.74c-.14.48-.24.78-.29.92l-.14.37-.13.36c-.05.12-.16.43-.33.94s-.33,1-.47,1.52-.22.85-.25,1-.07.32-.09.44-.05.25-.08.38a2.59,2.59,0,0,1-.17.6,1.62,1.62,0,0,1-.1.18.65.65,0,0,1-.09.11l-.1.06a.35.35,0,0,1-.17,0,.78.78,0,0,1-.24,0,2.44,2.44,0,0,1-.42-.2,3.23,3.23,0,0,1-.49-.34l-.45-.41-1-1c-.48-.5-.78-.83-.91-1s-.27-.28-.4-.43a8.89,8.89,0,0,1-.61-.74,4.83,4.83,0,0,1-.59-.9,2,2,0,0,1-.19-.55.77.77,0,0,1,0-.27.74.74,0,0,1,.06-.14.58.58,0,0,1,.1-.12l.17-.19"/><path id="STROKE_42D6C8D2-CEE4-4BC7-9E39-BEE2D5E73B6F" data-name="STROKE 42D6C8D2-CEE4-4BC7-9E39-BEE2D5E73B6F" class="cls-1" d="M245.66,48.21l.31-.08.27-.09.94-.35.88-.34.36-.13.67-.2c.32-.09.55-.16.71-.19s.42-.08.77-.13l.77-.09h.82a3.69,3.69,0,0,0,.6,0l0,0v0l-.11-.15-.31-.37-.45-.56q-.24-.32-.54-.66a4.58,4.58,0,0,0-.43-.44l-.19-.13-.22-.08a4.83,4.83,0,0,0-.74-.07h-.72l-.29.06a3.3,3.3,0,0,0-.53.23,6.2,6.2,0,0,0-.8.46c-.28.19-.54.38-.78.58s-.39.34-.47.43a2.28,2.28,0,0,0-.22.23l-.23.32c-.1.14-.17.25-.21.32s-.09.18-.16.33a3.9,3.9,0,0,0-.18.61,8.93,8.93,0,0,0-.07,1.83c0,1,.05,1.45.07,1.51l.08.16.09.16.11.14.12.12.18.11a5.9,5.9,0,0,0,1.18.14,8.39,8.39,0,0,0,1.37,0,5.38,5.38,0,0,0,.54-.13c.16,0,.34-.12.53-.2l.49-.22.48-.28a3,3,0,0,0,.37-.27l.11-.09.06-.06"/><path id="STROKE_D318CE5A-EFFC-4ED3-8688-CE0141389F32" data-name="STROKE D318CE5A-EFFC-4ED3-8688-CE0141389F32" class="cls-1" d="M254.89,47.27h-.17l-.07,0s-.05.07-.07.17a1.69,1.69,0,0,0,0,.52,4.21,4.21,0,0,0,.1.5c0,.1,0,.19.07.28s.05.19.08.28.06.19.08.28l.1.3c0,.11.07.21.1.32s.07.22.11.33.06.24.1.36.06.23.08.33a1.67,1.67,0,0,1,.06.29,2,2,0,0,1,0,.38,1.21,1.21,0,0,1,0,.28.1.1,0,0,1-.06.05.11.11,0,0,1-.11,0,.62.62,0,0,1-.18-.13,2.67,2.67,0,0,1-.26-.32q-.13-.21-.27-.45c-.08-.17-.16-.34-.23-.53a4.3,4.3,0,0,1-.17-.55,4.56,4.56,0,0,1-.12-.58c0-.2,0-.6,0-1.18a8.23,8.23,0,0,1,0-1.13,3.18,3.18,0,0,1,.13-.51,3.45,3.45,0,0,1,.2-.48,4.17,4.17,0,0,1,.26-.46,3.64,3.64,0,0,1,.3-.41,3.19,3.19,0,0,1,.31-.33,5.68,5.68,0,0,1,.6-.45,6.4,6.4,0,0,1,.78-.43,3.68,3.68,0,0,1,.48-.19,2.91,2.91,0,0,1,.51-.06,4.44,4.44,0,0,1,1.09.1,4.62,4.62,0,0,1,.81.19,1,1,0,0,1,.19.18,1.45,1.45,0,0,1,.16.21,1.31,1.31,0,0,1,.09.17l.09.21c0,.08,0,.16.08.25s.05.19.08.28.06.25.11.46l.12.51"/><path id="STROKE_032A4485-5F0D-4CC5-BB6B-236F73CF5F46" data-name="STROKE 032A4485-5F0D-4CC5-BB6B-236F73CF5F46" class="cls-1" d="M260.43,45.6l.38.6.29.39.28.34c.11.13.28.36.53.69l.47.64.22.31.18.25.21.29c.1.12.27.33.52.61a10.42,10.42,0,0,0,.88.88,6.7,6.7,0,0,0,.69.56l.34.19a1.61,1.61,0,0,0,.28.1.88.88,0,0,0,.2,0,.47.47,0,0,0,.17,0l.1,0s0,0,.05-.08a.49.49,0,0,0,0-.25,6.51,6.51,0,0,0-.19-.91"/><path id="STROKE_0F0D3A87-66BF-4299-AB15-8643934762B6" data-name="STROKE 0F0D3A87-66BF-4299-AB15-8643934762B6" class="cls-1" d="M267.37,44.41c0,.07,0,.31.07.7s.05.64.05.72a1.77,1.77,0,0,1,0,.24c0,.08,0,.23-.09.47s-.22.79-.48,1.64-.42,1.36-.47,1.5l-.19.6c-.07.25-.15.51-.23.77s-.16.54-.24.83-.17.58-.24.85-.16.57-.24.9-.17.65-.24.95-.13.6-.19.91-.1.57-.14.79-.07.47-.11.73-.07.5-.09.71,0,.39-.07.55,0,.2,0,.14"/><path id="STROKE_8E9D9E4C-21D2-426D-A0BA-50D077E8AA54" data-name="STROKE 8E9D9E4C-21D2-426D-A0BA-50D077E8AA54" class="cls-1" d="M270.08,45.93l.18,0a.2.2,0,0,0,.11,0,.25.25,0,0,0,.05-.07s.06-.19.13-.45a3.57,3.57,0,0,1,.19-.58,1,1,0,0,1,.2-.3.63.63,0,0,1,.18-.14.52.52,0,0,1,.2-.06.49.49,0,0,1,.24,0,2.75,2.75,0,0,1,.52.2,8,8,0,0,1,1.06.67c.44.32.71.52.8.61a2.81,2.81,0,0,1,.29.3,5.15,5.15,0,0,1,.41.54,4.67,4.67,0,0,1,.35.57,3.2,3.2,0,0,1,.16.39,3.28,3.28,0,0,1,.08.41,4.77,4.77,0,0,1,0,.78,3.66,3.66,0,0,1-.16.91,2.91,2.91,0,0,1-.31.64,3.76,3.76,0,0,1-.38.51c-.13.14-.28.29-.45.44a4.32,4.32,0,0,1-.58.42,3.68,3.68,0,0,1-.62.32,3.42,3.42,0,0,1-.6.18,2.8,2.8,0,0,1-.55.06,2.75,2.75,0,0,1-.5,0,1.94,1.94,0,0,1-.43-.11,1.35,1.35,0,0,1-.36-.18,1.58,1.58,0,0,1-.31-.26,2.36,2.36,0,0,1-.24-.33,2.07,2.07,0,0,1-.2-.49,5.19,5.19,0,0,1-.12-1.08,7.66,7.66,0,0,1,0-1.12c0-.23.08-.42.13-.6a4.29,4.29,0,0,1,.16-.47,5.19,5.19,0,0,1,.23-.51c.09-.18.17-.35.25-.48l.25-.42.29-.44.27-.39.16-.21.07-.09"/><path id="STROKE_6E229784-4940-48B6-A310-98293C255E7A" data-name="STROKE 6E229784-4940-48B6-A310-98293C255E7A" class="cls-1" d="M276.82,47c-.1-.48-.16-.72-.17-.73s0,0,0,0a2.85,2.85,0,0,0,0,.3c0,.15.09.43.2.85s.18.69.22.8.09.28.17.51l.25.71.19.55c0,.12.07.23.1.33a3,3,0,0,1,.08.32c0,.12.07.29.12.54s.08.41.1.52,0,.18,0,.19,0,0,0,0l-.06-.22c0-.14-.07-.29-.1-.44s-.06-.36-.09-.64a16.78,16.78,0,0,1,0-2A13.87,13.87,0,0,1,278,47l.14-.24c.06-.09.17-.25.34-.47a3.79,3.79,0,0,1,.37-.44l.26-.23a4.29,4.29,0,0,1,.44-.26,4.11,4.11,0,0,1,.44-.2,2.65,2.65,0,0,1,.46-.07,2,2,0,0,1,.55,0,1.18,1.18,0,0,1,.33.1,2,2,0,0,1,.29.22,2.08,2.08,0,0,1,.27.29A1.64,1.64,0,0,1,282,46a4.58,4.58,0,0,1,.2.5,5.52,5.52,0,0,1,.18.54c0,.13.06.31.1.54s.07.46.09.67.1,1,.21,2.23.18,1.9.19,1.89l.05,0,.08-.07.11-.13c0-.06.11-.14.2-.25"/><path id="STROKE_E51E3FD0-0CF6-4419-BF7A-63A044DAAC6F" data-name="STROKE E51E3FD0-0CF6-4419-BF7A-63A044DAAC6F" class="cls-1" d="M285.32,48.43l.18-.08a2.08,2.08,0,0,0,.26-.13l.25-.14.46-.26a5.53,5.53,0,0,1,.52-.27,3.09,3.09,0,0,1,.49-.2,7.68,7.68,0,0,1,.8-.25,7.48,7.48,0,0,1,1.18-.15,5,5,0,0,1,1.06,0l.39.08.13,0,.11,0h0a.35.35,0,0,0,0-.07,3.22,3.22,0,0,0-.07-.5A3.4,3.4,0,0,0,291,46a.83.83,0,0,0-.08-.12,5.33,5.33,0,0,0-1.05-.22c-.66-.11-1.07-.18-1.23-.22l-.51-.11-.42-.08a1.66,1.66,0,0,0-.39,0,1.59,1.59,0,0,0-.38.06,5.43,5.43,0,0,0-.63.38,5.18,5.18,0,0,0-.63.46l-.25.26-.21.26c-.07.09-.17.24-.3.44l-.29.46c-.05.11-.16.39-.33.83a5.41,5.41,0,0,0-.28,1,1.75,1.75,0,0,0,0,.56,1.13,1.13,0,0,0,.07.29l.1.09a3.4,3.4,0,0,0,.63.18c.39.09.66.15.83.17l.43.06.83.13c.42.07.92.17,1.49.3s1.05.24,1.43.34l.73.18a1,1,0,0,0,.29,0c.09,0,.13,0,.13,0a0,0,0,0,0,0,0l-.05-.11a3.66,3.66,0,0,0-.26-.4"/><path id="STROKE_4598B94A-6024-40FB-8338-CF645A18616A" data-name="STROKE 4598B94A-6024-40FB-8338-CF645A18616A" class="cls-1" d="M237.26,64.5c.08-.11.13-.2.18-.26s.09-.18.16-.33a3.08,3.08,0,0,0,.15-.42,4.33,4.33,0,0,0,0-.92,4.24,4.24,0,0,0-.08-.8.75.75,0,0,0-.1-.17.94.94,0,0,0-.17-.18l-.26-.19-.22-.13-.38-.15a4.22,4.22,0,0,0-.6-.2,2.42,2.42,0,0,0-.48-.1,2.48,2.48,0,0,0-.56,0,2,2,0,0,0-.59.15A2,2,0,0,0,234,61a3.49,3.49,0,0,0-.35.32c-.16.17-.27.29-.34.38l-.23.31c-.08.12-.2.33-.37.62s-.3.5-.38.65-.15.3-.22.45-.16.37-.28.68-.2.53-.25.66-.08.28-.11.42a3.24,3.24,0,0,0-.07.39,3.75,3.75,0,0,0,0,.42,5.08,5.08,0,0,0,.06.67,2.47,2.47,0,0,0,.12.51.4.4,0,0,0,.13.13,1.45,1.45,0,0,0,.47.12,2.46,2.46,0,0,0,.71,0,3,3,0,0,0,.69-.17,4.81,4.81,0,0,0,.77-.35q.39-.21.75-.45c.25-.15.49-.31.71-.46l.59-.39.8-.57a8.47,8.47,0,0,0,.8-.65,1.52,1.52,0,0,0,.29-.35l.05-.13v-.07a.93.93,0,0,0,0-.14s0-.1,0-.15-.05-.35-.13-.91-.11-.85-.12-.87,0,0,0,0v0s0,.07,0,.13,0,.13,0,.19v.23c0,.09,0,.2,0,.32s0,.58,0,1.37a6.18,6.18,0,0,0,.13,1.34,2.73,2.73,0,0,0,.28.4c.14.15.23.26.3.32l.39.31a8,8,0,0,0,.74.48,4.17,4.17,0,0,0,.76.36,3.09,3.09,0,0,0,.43.12.92.92,0,0,0,.34,0l.26-.09a1.78,1.78,0,0,0,.13-.21,4.81,4.81,0,0,0,.22-.92"/><path id="STROKE_F3E7FD7F-25D5-490A-911D-A451F2D25FC0" data-name="STROKE F3E7FD7F-25D5-490A-911D-A451F2D25FC0" class="cls-1" d="M247.36,61.78a7.44,7.44,0,0,0-.06-1.3,2,2,0,0,0-.09-.46l-.05-.07a.36.36,0,0,0-.13-.09l-.19-.07a6.15,6.15,0,0,0-.74,0,7.77,7.77,0,0,0-.79,0l-.25.06a1.71,1.71,0,0,0-.34.13l-.34.19a7.2,7.2,0,0,0-.62.53,6.9,6.9,0,0,0-.77.77c-.18.22-.3.37-.35.45s-.11.18-.17.29-.14.32-.27.65-.26.71-.37,1.11a8.58,8.58,0,0,0-.2.84,3.13,3.13,0,0,0,0,.42,5.92,5.92,0,0,0,0,.72,5.57,5.57,0,0,0,.09.71,1.81,1.81,0,0,0,.13.31.76.76,0,0,0,.15.23.79.79,0,0,0,.19.17,1.28,1.28,0,0,0,.31.15,3.61,3.61,0,0,0,.84.12,3.49,3.49,0,0,0,.95,0,3,3,0,0,0,.68-.23c.23-.12.43-.23.6-.34a6.65,6.65,0,0,0,.63-.48,7.79,7.79,0,0,0,.6-.53c.14-.14.27-.27.38-.4a3.85,3.85,0,0,0,.33-.42,3.36,3.36,0,0,0,.25-.38,2.59,2.59,0,0,0,.14-.29,2.24,2.24,0,0,0,.1-.44,2.65,2.65,0,0,0,0-.64,3.13,3.13,0,0,0-.06-.54,2.46,2.46,0,0,0-.09-.31l-.06-.12s0,0,0,0,0,.05,0,.08,0,.12,0,.24a1.3,1.3,0,0,0,0,.27,1.58,1.58,0,0,0,.06.23,5.13,5.13,0,0,0,.26.67c.15.34.27.63.37.87s.2.5.3.76l.2.6.12.38.11.36c0,.12.09.27.14.45l.34,1c.16.51.27.85.32,1l.15.5c.05.17.09.33.13.48s.06.3.08.45,0,.28.05.42,0,.41-.05.79a3.82,3.82,0,0,1-.14.78,1.7,1.7,0,0,1-.42.7,2.34,2.34,0,0,1-.32.3,3.19,3.19,0,0,1-.42.3,4.31,4.31,0,0,1-.47.26,3.93,3.93,0,0,1-.55.21,3.45,3.45,0,0,1-.57.15,3.75,3.75,0,0,1-.61.08,6.08,6.08,0,0,1-.89,0,3.83,3.83,0,0,1-.74-.14,2.37,2.37,0,0,1-.35-.19,1.68,1.68,0,0,1-.27-.23,2.88,2.88,0,0,1-.21-.28,3.12,3.12,0,0,1-.2-.35c-.05-.12-.09-.24-.13-.37s-.12-.52-.24-1.17"/><path id="STROKE_DCDA65D9-DDDB-4ACA-A481-6341F1F20753" data-name="STROKE DCDA65D9-DDDB-4ACA-A481-6341F1F20753" class="cls-1" d="M252.57,62.11v0a1.31,1.31,0,0,0,0,.14c0,.09.08.31.19.65s.31.86.6,1.55l.52,1.22c.05.11.11.23.16.35l.16.37c.05.12.09.25.14.39s.09.27.13.41.07.29.1.43a1.05,1.05,0,0,1,0,.28c0,.06,0,.08,0,.09h0a.32.32,0,0,1-.13-.07,1.83,1.83,0,0,1-.22-.24,3.39,3.39,0,0,1-.29-.38,5.66,5.66,0,0,1-.31-.48c-.09-.16-.25-.49-.46-1a8.77,8.77,0,0,1-.5-1.4,6.86,6.86,0,0,1-.2-1.25,5.13,5.13,0,0,1,0-.9,3.39,3.39,0,0,1,.08-.43l.09-.19a1.05,1.05,0,0,1,.14-.2,2.6,2.6,0,0,1,.38-.32,4,4,0,0,1,.63-.4c.23-.11.4-.19.49-.22a3.16,3.16,0,0,1,.45-.09,9,9,0,0,1,1.14-.05,8.84,8.84,0,0,1,1,0,9.82,9.82,0,0,1,1,.34,5.49,5.49,0,0,1,1,.45,1.57,1.57,0,0,1,.27.22,1,1,0,0,1,.15.21,1.26,1.26,0,0,1,.09.21l0,.12s0,.09,0,.16"/><path id="STROKE_82E30985-DDC2-4D09-8212-72F06412F582" data-name="STROKE 82E30985-DDC2-4D09-8212-72F06412F582" class="cls-1" d="M260.64,63.16l.25-.19a7.83,7.83,0,0,1,.78-.49l.69-.4.23-.09.4-.14.7-.19c.27-.07.47-.12.61-.14s.46-.06,1-.11,1.09-.06,1.65-.07a6.4,6.4,0,0,0,.92,0c.06,0,.08,0,.09-.06a.83.83,0,0,0,0-.12,2.38,2.38,0,0,0-.24-.53,4.17,4.17,0,0,0-.34-.56,2.78,2.78,0,0,0-.3-.3,3.25,3.25,0,0,0-.49-.35c-.19-.11-.36-.21-.51-.28l-.58-.28-.54-.22-.26-.07-.26,0a2.49,2.49,0,0,0-.41,0,1.76,1.76,0,0,0-.31,0l-.17,0a2.36,2.36,0,0,0-.5.33,4.24,4.24,0,0,0-.7.63,6.48,6.48,0,0,0-.55.67,11.83,11.83,0,0,0-.63,1.06,10,10,0,0,0-.46.89,2.23,2.23,0,0,0-.13.43,2.29,2.29,0,0,0-.09.42,6.11,6.11,0,0,0,0,.85,4.34,4.34,0,0,0,.07.79,1,1,0,0,0,.12.27,4.78,4.78,0,0,0,.36.48,6.24,6.24,0,0,0,.47.5,4,4,0,0,0,.39.34c.12.1.26.19.39.28l.43.25c.15.07.29.14.43.19a3.45,3.45,0,0,0,.42.14,3,3,0,0,0,.5.09,5.5,5.5,0,0,0,.86,0,4.21,4.21,0,0,0,.8-.07l.37-.11.25-.13a2,2,0,0,0,.23-.18,1.7,1.7,0,0,0,.19-.19l.15-.19.11-.21.12-.33c0-.15.1-.45.19-.9"/><path id="STROKE_56CF8CFE-0E16-4681-B412-CFC2446E37C3" data-name="STROKE 56CF8CFE-0E16-4681-B412-CFC2446E37C3" class="cls-1" d="M271,63.52l.78-.25.78-.25.65-.19a1.05,1.05,0,0,1,.24-.06l.37-.08.6-.11,1-.14.93-.14.51-.07.39-.06a1.51,1.51,0,0,0,.48-.21,1,1,0,0,0,.38-.74,1.64,1.64,0,0,0,0-.67.85.85,0,0,0-.14-.21,2.23,2.23,0,0,0-.23-.27l-.35-.32a4.59,4.59,0,0,0-.46-.35,3.29,3.29,0,0,0-.55-.3,2.87,2.87,0,0,0-.66-.18,3.1,3.1,0,0,0-.81,0,2.39,2.39,0,0,0-.7.14l-.39.18c-.08.06-.23.17-.45.36s-.45.39-.68.61l-.43.43-.2.23-.46.64c-.24.35-.41.61-.51.79s-.17.32-.2.4a2.25,2.25,0,0,0-.1.33,4.6,4.6,0,0,0-.1.53,7.41,7.41,0,0,0,0,.88,5.36,5.36,0,0,0,.06.74,1.71,1.71,0,0,0,.09.3,1.88,1.88,0,0,0,.14.29,2.61,2.61,0,0,0,.17.28c.06.09.14.18.23.29s.2.21.34.34a6.28,6.28,0,0,0,.7.52,6.41,6.41,0,0,0,.73.45,3.37,3.37,0,0,0,.42.17,3.07,3.07,0,0,0,.43.1,8.2,8.2,0,0,0,.86,0,5.62,5.62,0,0,0,.88,0,2.65,2.65,0,0,0,.45-.14,2.42,2.42,0,0,0,.39-.21,3.28,3.28,0,0,0,.4-.32,6.39,6.39,0,0,0,.63-.67c.28-.32.46-.55.55-.67s.18-.25.26-.38l.25-.4.3-.5"/><path id="STROKE_6DA03AE6-72AB-440F-845D-1251DE1F390F" data-name="STROKE 6DA03AE6-72AB-440F-845D-1251DE1F390F" class="cls-1" d="M286.48,61.46a3.9,3.9,0,0,0,0-1,.83.83,0,0,0-.14-.34.68.68,0,0,0-.44-.27,4.72,4.72,0,0,0-.83-.06,5.17,5.17,0,0,0-.78,0,1.59,1.59,0,0,0-.34.11,2.12,2.12,0,0,0-.34.17,3.21,3.21,0,0,0-.33.26,4.09,4.09,0,0,0-.44.47,1.94,1.94,0,0,0-.29.48.54.54,0,0,0-.05.27.19.19,0,0,0,.07.12.71.71,0,0,0,.3.13,2.92,2.92,0,0,0,.68.13l.63.07.52.07.67.11a4.89,4.89,0,0,1,.48.13l.43.17a3.66,3.66,0,0,1,.57.35,3.52,3.52,0,0,1,.69.67,2.92,2.92,0,0,1,.49.71,1.92,1.92,0,0,1,.13.48,1.36,1.36,0,0,1,0,.4.8.8,0,0,1,0,.23.82.82,0,0,1-.06.16,1,1,0,0,1-.12.19,1.66,1.66,0,0,1-.23.22,6.91,6.91,0,0,1-.78.47,9.79,9.79,0,0,1-.9.46,3.14,3.14,0,0,1-.51.18l-.51.13c-.18,0-.44,0-.78.07a3.66,3.66,0,0,1-.8,0l-.36-.09L283,67l-.11-.12a1,1,0,0,1-.09-.15c0-.06-.09-1.25-.18-3.58"/><path id="STROKE_9D5591BD-CC14-4FE1-B519-98A2E92FE1DE" data-name="STROKE 9D5591BD-CC14-4FE1-B519-98A2E92FE1DE" class="cls-1" d="M298.46,59.28c0-.14,0-.24,0-.3a1,1,0,0,1,0-.15.37.37,0,0,1,0-.08.6.6,0,0,1,0,.08,2.85,2.85,0,0,1,0,.3c0,.15-.06.36-.12.64s-.1.49-.13.62-.08.36-.16.7-.11.56-.13.67,0,.24-.05.4,0,.52,0,1.12,0,.94.07,1a1.52,1.52,0,0,0,.09.25,1.82,1.82,0,0,0,.15.27,2.45,2.45,0,0,0,.23.31,7.37,7.37,0,0,0,.59.6,6.59,6.59,0,0,0,.66.57,9.18,9.18,0,0,0,.81.46,7,7,0,0,0,.83.39,4.59,4.59,0,0,0,.45.14l.49.07a6.74,6.74,0,0,0,.92,0,5,5,0,0,0,.8-.07,1.83,1.83,0,0,0,.28-.1.78.78,0,0,0,.24-.16.67.67,0,0,0,.17-.17.44.44,0,0,0,.06-.16.36.36,0,0,0,0-.14,8.32,8.32,0,0,0-.54-.87"/><path id="STROKE_E4FBD734-B33E-4AD5-BC5F-D26B4EBB859F" data-name="STROKE E4FBD734-B33E-4AD5-BC5F-D26B4EBB859F" class="cls-1" d="M304.8,62c-2.53,0-3.95,0-4.28.08l-.79.09-.52.07-.52.1-1.12.22c-.54.12-.9.18-1.08.21a4.93,4.93,0,0,1-.58.06h-.64"/><path id="STROKE_E169C0CC-C574-40B9-870C-DEA4B75D4F46" data-name="STROKE E169C0CC-C574-40B9-870C-DEA4B75D4F46" class="cls-1" d="M306,63.55c-.06-.13-.12-.27-.2-.43a3.42,3.42,0,0,1-.17-.35c0-.08,0-.15-.05-.21a.73.73,0,0,1,0-.25,1.44,1.44,0,0,1,.07-.22l.23-.26a2.15,2.15,0,0,1,.4-.32,1.45,1.45,0,0,1,.29-.14,1.73,1.73,0,0,1,.34-.09,6.65,6.65,0,0,1,1.2,0,6,6,0,0,1,1.16.06,2.4,2.4,0,0,1,.53.24,4.89,4.89,0,0,1,.78.56,5.12,5.12,0,0,1,.6.56,3.68,3.68,0,0,1,.28.39,2.32,2.32,0,0,1,.2.38c.06.13.11.26.16.39s.08.28.12.45a4,4,0,0,1,.07.48,3,3,0,0,1,0,.4,2.37,2.37,0,0,1-.08.43,2.54,2.54,0,0,1-.35.72,3.32,3.32,0,0,1-.48.63,2,2,0,0,1-.39.29,1.7,1.7,0,0,1-.39.18,2.39,2.39,0,0,1-.48.12,5.77,5.77,0,0,1-1,.06,5,5,0,0,1-1-.06,1.92,1.92,0,0,1-.48-.15,3.45,3.45,0,0,1-.43-.23,4.85,4.85,0,0,1-.4-.31,2.5,2.5,0,0,1-.36-.37,3.37,3.37,0,0,1-.28-.38,2.86,2.86,0,0,1-.21-.43,3.16,3.16,0,0,1-.16-.46,3.43,3.43,0,0,1-.08-.48,7.35,7.35,0,0,1,0-1.11,7.24,7.24,0,0,1,.1-1c0-.08.05-.17.08-.26"/><path id="STROKE_88491A75-C18A-4698-B51D-37F866ECED8D" data-name="STROKE 88491A75-C18A-4698-B51D-37F866ECED8D" class="cls-1" d="M235.3,17.34a.59.59,0,0,0,.07-.14,1.33,1.33,0,0,0,0-.4,1.17,1.17,0,0,0-.09-.53A.82.82,0,0,0,235,16a1.57,1.57,0,0,0-.71-.15,2.52,2.52,0,0,0-.66.06,2,2,0,0,0-.36.17,2.65,2.65,0,0,0-.37.27,4.75,4.75,0,0,0-.38.39,3.27,3.27,0,0,0-.35.46,3.8,3.8,0,0,0-.32.52,5.5,5.5,0,0,0-.24.51c-.06.15-.1.27-.13.35l-.05.2a.57.57,0,0,0,0,.14c0,.05,0,.2,0,.45a6.09,6.09,0,0,0,0,.88,4.07,4.07,0,0,0,.06.68,4,4,0,0,0,.09.42c0,.16.09.37.17.63s.14.46.18.57a1.86,1.86,0,0,0,.19.37,1.39,1.39,0,0,0,.19.27,1.47,1.47,0,0,0,.24.18,1.79,1.79,0,0,0,.32.18l.38.15.38.13.39.1a6.38,6.38,0,0,0,.85.1,4.9,4.9,0,0,0,.76,0,4.74,4.74,0,0,0,.67-.21l.61-.25c.08-.05.22-.13.42-.27l.31-.21.07-.07"/><path id="STROKE_5AD047FC-A346-481E-8162-F0B3291947AF" data-name="STROKE 5AD047FC-A346-481E-8162-F0B3291947AF" class="cls-1" d="M240.08,17.63l.08-.06s0-.06.07-.14a1.52,1.52,0,0,0,.09-.33c0-.14.07-.34.13-.6a3.61,3.61,0,0,1,.2-.59,1.11,1.11,0,0,1,.2-.31.67.67,0,0,1,.2-.18,1.36,1.36,0,0,1,.34-.16,1.69,1.69,0,0,1,.56-.08,2.66,2.66,0,0,1,.92.22,4.25,4.25,0,0,1,.91.45,5.27,5.27,0,0,1,.58.48,3.46,3.46,0,0,1,.39.39L245,17a2.75,2.75,0,0,1,.19.28,2.27,2.27,0,0,1,.17.31c.06.11.11.23.16.34s.09.24.13.36l.09.36a4,4,0,0,1,0,.43,4.12,4.12,0,0,1,0,.74,3.55,3.55,0,0,1-.13.77,2.38,2.38,0,0,1-.24.51,3.58,3.58,0,0,1-.31.45,4.44,4.44,0,0,1-.37.38l-.35.3-.36.22a2.33,2.33,0,0,1-.39.19,3.07,3.07,0,0,1-.47.13,4.37,4.37,0,0,1-.83,0,4.57,4.57,0,0,1-.75-.06,2,2,0,0,1-.37-.16,1.64,1.64,0,0,1-.33-.26,2.79,2.79,0,0,1-.31-.39,4.19,4.19,0,0,1-.29-.49c-.08-.17-.15-.34-.22-.5s-.1-.31-.14-.43a3,3,0,0,1-.08-.37,2.63,2.63,0,0,1-.06-.39c0-.13,0-.56.07-1.29a7.15,7.15,0,0,1,.14-1.16.68.68,0,0,1,.12-.12l.14-.08.35-.09.84-.16"/><path id="STROKE_58C8F260-3CE0-4B8C-AECA-46003E80E29F" data-name="STROKE 58C8F260-3CE0-4B8C-AECA-46003E80E29F" class="cls-1" d="M248.26,16.83c0-.21.05-.35.07-.43s0-.12,0-.12a.66.66,0,0,1,0,.09,1.07,1.07,0,0,1,0,.24c0,.11,0,.24.05.39s.05.35.08.57.07.66.13,1.33.11,1.19.14,1.58.05.69.06.9.05.59.1,1.13.09.87.1,1,0,.2,0,.28a1.16,1.16,0,0,0,0,.16s0,.07,0,.1l0,0s0-.18,0-.56a6.89,6.89,0,0,0,0-.84c0-.19-.08-.76-.23-1.71s-.23-1.49-.25-1.63,0-.27-.05-.37,0-.23,0-.39,0-.29,0-.4a6.56,6.56,0,0,1,.08-.77,6.71,6.71,0,0,1,.11-.71,1.39,1.39,0,0,1,.21-.3,2.57,2.57,0,0,1,.47-.44,5.51,5.51,0,0,1,.69-.46,6.51,6.51,0,0,1,.7-.35l.45-.16a3.37,3.37,0,0,1,.49-.05,1.84,1.84,0,0,1,.48,0l.18.06a1,1,0,0,1,.17.13,1.16,1.16,0,0,1,.18.22,4.41,4.41,0,0,1,.18.48,5.81,5.81,0,0,1,.19.84c0,.32.11.81.16,1.46s.08,1.05.08,1.18l0,.31c0,.08,0,.16,0,.25s0,.17,0,.26,0,.18,0,.29,0,.41,0,.92a5.84,5.84,0,0,1-.05,1,1,1,0,0,1-.07.25l0,.07"/><path id="STROKE_06E6AAD1-A64B-4A9C-8D14-F1279666D3C8" data-name="STROKE 06E6AAD1-A64B-4A9C-8D14-F1279666D3C8" class="cls-1" d="M259.59,16.94a3.24,3.24,0,0,0,.69,0,.78.78,0,0,0,.31-.07.58.58,0,0,0,.14-.13,1.85,1.85,0,0,0,.12-.32,3.77,3.77,0,0,0,0-.95,6.19,6.19,0,0,0-.07-.77.6.6,0,0,0-.09-.15.77.77,0,0,0-.12-.13,1.57,1.57,0,0,0-.25-.16,2.82,2.82,0,0,0-.48-.19,3.94,3.94,0,0,0-.44-.11l-.48,0-.47,0-.28.06a1.84,1.84,0,0,0-.25.09l-.25.12q-.13.07-.45.3a6.14,6.14,0,0,0-.8.78,5,5,0,0,0-.66.84,2.33,2.33,0,0,0-.19.43c0,.08,0,.14,0,.17v.06s0,0,0,.06a22.22,22.22,0,0,0,2.49.23c1.64.12,2.5.2,2.55.23l.22.13.21.16.2.19.21.25a2.81,2.81,0,0,1,.19.31,4.32,4.32,0,0,1,.23.62,3.16,3.16,0,0,1,.17.66,6.57,6.57,0,0,1,0,1.06,5.77,5.77,0,0,1-.09,1,.66.66,0,0,1-.09.19.76.76,0,0,1-.11.16,1,1,0,0,1-.13.15l-.18.15a1.64,1.64,0,0,1-.22.14,2.94,2.94,0,0,1-.53.19,6.76,6.76,0,0,1-1.78.11,7.66,7.66,0,0,1-1.53-.09,2.12,2.12,0,0,1-.34-.2,4.26,4.26,0,0,1-.44-.39,3.61,3.61,0,0,1-.43-.5c-.12-.16-.28-.44-.51-.84"/><path id="STROKE_7AB6DF5D-6EF3-4731-A856-3DDEA8ACF975" data-name="STROKE 7AB6DF5D-6EF3-4731-A856-3DDEA8ACF975" class="cls-1" d="M264.55,16.54c0-.47,0-.67,0-.61s0,.35,0,.87.05,1,.08,1.32.06.59.08.72.06.36.13.72.13.74.21,1.15.14.69.16.82l.12.5c.05.21.07.28.06.23a6,6,0,0,0-.09-.61"/><path id="STROKE_52C50D81-82CF-4700-BEA7-B553AC1536AF" data-name="STROKE 52C50D81-82CF-4700-BEA7-B553AC1536AF" class="cls-1" d="M273.56,15.64a4.44,4.44,0,0,0-.29-.37,1.33,1.33,0,0,0-.26-.21,1.2,1.2,0,0,0-.34-.17,3.24,3.24,0,0,0-.67-.14,5.65,5.65,0,0,0-1.12,0,6.38,6.38,0,0,0-.74.07,1.06,1.06,0,0,0-.31.14,2.55,2.55,0,0,0-.46.35,3.06,3.06,0,0,0-.49.59,1.83,1.83,0,0,0-.3.56.69.69,0,0,0,0,.3.77.77,0,0,0,0,.12.89.89,0,0,0,.18.15,1.34,1.34,0,0,0,.37.22c.15.06.32.13.54.2l.86.29.71.23.48.18.47.2.47.23.44.24.36.27a3,3,0,0,1,.41.39,3.21,3.21,0,0,1,.26.33c.05.09.11.23.19.42a2.74,2.74,0,0,1,.16,1.09,2.13,2.13,0,0,1-.07.31,1.74,1.74,0,0,1-.11.18,1.23,1.23,0,0,1-.23.22,2.22,2.22,0,0,1-.41.23,3.91,3.91,0,0,1-.65.23l-.79.18-.8.1c-.28,0-.78,0-1.5,0a7.85,7.85,0,0,1-1.39-.1,1.93,1.93,0,0,1-.49-.19,1.89,1.89,0,0,1-.38-.27,3.16,3.16,0,0,1-.34-.38,6.24,6.24,0,0,1-.43-.67"/><path id="STROKE_39AB8554-3217-4C3E-8962-329947963068" data-name="STROKE 39AB8554-3217-4C3E-8962-329947963068" class="cls-1" d="M277.68,12.56c.13-.78.19-1.17.2-1.16l0,0a2.15,2.15,0,0,1,.07.24,4.94,4.94,0,0,1,.12.51c0,.22.09.49.14.82l.15,1c0,.34.14,1,.29,1.83s.28,1.57.39,2.08.19.88.25,1.14l.18.75c.06.24.12.45.17.64s.1.38.15.6.1.44.15.65a5,5,0,0,1,.08.8,3,3,0,0,1,0,.52.06.06,0,0,1-.06,0l-.17-.15"/><path id="STROKE_577C3A57-1677-440E-8FFB-073C222A8066" data-name="STROKE 577C3A57-1677-440E-8FFB-073C222A8066" class="cls-1" d="M285.5,16.76c-.06,0-.72,0-2-.05s-2.15,0-2.64,0l-1,.09-.42,0c-.1,0-.71,0-1.85-.11s-1.71-.13-1.71-.14"/><path id="STROKE_460C4564-A2EF-4B2A-A5A2-EC266960FD91" data-name="STROKE 460C4564-A2EF-4B2A-A5A2-EC266960FD91" class="cls-1" d="M287.49,16.79l.77-.26.63-.17c.29-.07.52-.12.72-.15l.47-.08.81-.09.87-.1,1.2-.18a5.81,5.81,0,0,0,1.21-.28c.16-.09.24-.15.24-.19a.21.21,0,0,0,0-.14,1.15,1.15,0,0,0-.16-.19,3.72,3.72,0,0,0-.43-.35,4.93,4.93,0,0,0-.64-.41,4.31,4.31,0,0,0-.46-.24l-.22-.1-.33-.09a5.18,5.18,0,0,0-.77-.15,6.63,6.63,0,0,0-1.12-.08c-.41,0-.64,0-.71,0l-.33.11a3.11,3.11,0,0,0-.45.22,7,7,0,0,0-.61.45,4.37,4.37,0,0,0-.57.55,4,4,0,0,0-.36.52,5.28,5.28,0,0,0-.3.58c-.08.2-.15.35-.18.46s-.07.26-.12.48-.07.41-.09.56a9.05,9.05,0,0,0,0,1,6.36,6.36,0,0,0,.09.92,1.2,1.2,0,0,0,.13.31,2.33,2.33,0,0,0,.17.26,2.1,2.1,0,0,0,.26.28,3.07,3.07,0,0,0,.35.28,3.56,3.56,0,0,0,.45.27,4.34,4.34,0,0,0,.54.25,5.58,5.58,0,0,0,.58.18c.2.06.4.1.59.14l.56.09.48.05.41,0c.13,0,.46,0,1-.1l.81-.11s0,0,0,0"/><path id="STROKE_66923DAD-21E5-4433-BAF4-C3905F714619" data-name="STROKE 66923DAD-21E5-4433-BAF4-C3905F714619" class="cls-1" d="M296.87,16.21c.07,0,.13,0,.17.17s.07.24.09.34.13.42.32,1,.33,1,.44,1.34.18.55.23.68.07.25.11.36.07.25.11.4.07.3.1.47a7.56,7.56,0,0,1,.05.93,2.54,2.54,0,0,1-.05.77.14.14,0,0,1-.11.08.27.27,0,0,1-.11,0,.69.69,0,0,1-.14-.15,1.78,1.78,0,0,1-.2-.34,3.13,3.13,0,0,1-.21-.52,6.29,6.29,0,0,1-.17-.62,6.46,6.46,0,0,1-.11-.72,11.15,11.15,0,0,1,0-1.29,9.06,9.06,0,0,1,.05-1.18,3.37,3.37,0,0,1,.12-.55,5,5,0,0,1,.19-.54c.08-.19.17-.38.26-.55a4.85,4.85,0,0,1,.29-.49l.29-.41c.09-.11.27-.29.52-.53a6.15,6.15,0,0,1,.54-.46,2.92,2.92,0,0,1,.4-.21l.32-.12a2.24,2.24,0,0,1,.36,0,1.84,1.84,0,0,1,.34,0,1,1,0,0,1,.21.12,3,3,0,0,1,.51.69,6.74,6.74,0,0,1,.49.92c.09.22.17.46.25.7s.15.51.21.77.11.44.13.53.05.18.07.3.08.42.16.91.15,1,.2,1.56a8.65,8.65,0,0,0,.15,1.13c0,.21.07.29.09.26a2.31,2.31,0,0,0,.12-.35c.06-.21.12-.43.19-.66"/><path id="STROKE_8AAD2590-5D04-4E91-893B-FE22BE27BE73" data-name="STROKE 8AAD2590-5D04-4E91-893B-FE22BE27BE73" class="cls-1" d="M306.71,11.83a.32.32,0,0,1,.13.13.75.75,0,0,1,.08.18.89.89,0,0,1,.06.2c0,.06,0,.16.09.31l.14.47.12.41.1.3c0,.1.06.2.1.3s.1.32.22.68.2.63.26.82.13.56.23,1.09.17.88.2,1.05.06.59.11,1.28.08,1,.08,1"/><path id="STROKE_A8A76A49-5E19-403C-874F-24637D62FA2B" data-name="STROKE A8A76A49-5E19-403C-874F-24637D62FA2B" class="cls-1" d="M313.45,14.81l-.72.08a6.72,6.72,0,0,1-.85,0h-.51l-.63,0c-.32,0-.86,0-1.61,0s-1.19,0-1.32,0l-.7.11-.65.1-.31,0a2.35,2.35,0,0,1-.55-.11,1.81,1.81,0,0,1-.43-.16,3,3,0,0,1-.27-.34"/><circle id="STROKE_5BA9BB6C-8A49-4E85-B00C-0C5713730C43" data-name="STROKE 5BA9BB6C-8A49-4E85-B00C-0C5713730C43" class="cls-2" cx="264.8" cy="11.11" r="0.66"/><path id="STROKE_2D2E81D2-3921-4A96-9596-5F48BB28FE8E" data-name="STROKE 2D2E81D2-3921-4A96-9596-5F48BB28FE8E" class="cls-1" d="M25.07,66.49l-.09,0-.1,0-.1,0-.18,0"/><path id="STROKE_70FDBBF7-9DED-499E-9538-30291E09EA10" data-name="STROKE 70FDBBF7-9DED-499E-9538-30291E09EA10" class="cls-1" d="M142.69,71.12l0,.16c0,.06,0,.14-.07.25s-.08.25-.14.45l-.24.77c-.09.33-.17.61-.23.86s-.1.42-.12.53,0,.59,0,1.45A7,7,0,0,0,142,77a5.12,5.12,0,0,0,.34.61c.18.3.33.51.43.66a4.35,4.35,0,0,0,.34.41,5,5,0,0,0,.39.41,5.37,5.37,0,0,0,.53.44,5.08,5.08,0,0,0,.56.38c.16.09.35.18.55.27l.59.21a4.08,4.08,0,0,0,.59.11,7.57,7.57,0,0,0,1.23-.08,4,4,0,0,0,1-.19.71.71,0,0,0,.12-.13.87.87,0,0,0,.07-.17,1.55,1.55,0,0,0,0-.21,1.2,1.2,0,0,0,0-.27,2.34,2.34,0,0,0-.05-.3,2.28,2.28,0,0,0-.13-.35,5.49,5.49,0,0,0-.38-.66"/><path id="STROKE_98B990AF-9656-4606-B473-6170CC800A6C" data-name="STROKE 98B990AF-9656-4606-B473-6170CC800A6C" class="cls-1" d="M148.41,74.52l-.08,0-.07,0h-.06l-2.14.12c-1.4.08-2.15.12-2.25.14l-.35,0-.81.12c-.4.06-.73.11-1,.13l-.85.07"/><path id="STROKE_8EFA4865-1842-48D7-93EE-9A64F9501109" data-name="STROKE 8EFA4865-1842-48D7-93EE-9A64F9501109" class="cls-1" d="M151.05,76c0-.25,0-.45,0-.58s0-.39.06-.77a4.67,4.67,0,0,1,.12-.68,1,1,0,0,1,.16-.23.8.8,0,0,1,.24-.19,2.38,2.38,0,0,1,.5-.15,4.15,4.15,0,0,1,.83-.07,3.67,3.67,0,0,1,.61,0,1.38,1.38,0,0,1,.27.08,2.89,2.89,0,0,1,.45.25c.21.13.37.24.49.33a5.55,5.55,0,0,1,.46.44c.19.2.32.35.39.44a2.56,2.56,0,0,1,.16.25c0,.07.08.16.12.25a4.89,4.89,0,0,1,.12.57,4.32,4.32,0,0,1,0,1,3.23,3.23,0,0,1-.13.77,1.93,1.93,0,0,1-.22.43,3.35,3.35,0,0,1-.31.4c-.13.13-.26.26-.41.39a5.55,5.55,0,0,1-.46.35,4.93,4.93,0,0,1-.43.26,4.09,4.09,0,0,1-.42.16,3.1,3.1,0,0,1-.42.1,2.9,2.9,0,0,1-.68,0,2.82,2.82,0,0,1-.65-.11,1.28,1.28,0,0,1-.32-.2,2.25,2.25,0,0,1-.34-.44,3.16,3.16,0,0,1-.29-.62,4.77,4.77,0,0,1-.2-.7c-.05-.26-.09-.45-.11-.58s0-.75,0-1.83,0-1.69.06-1.81.05-.23.07-.34.06-.22.1-.37"/><path id="STROKE_5AF1FAB1-835F-407C-8A31-406FF5B25417" data-name="STROKE 5AF1FAB1-835F-407C-8A31-406FF5B25417" class="cls-1" d="M159.92,76c0-.21-.07-.39-.09-.57a5.17,5.17,0,0,1,0-.8,3.55,3.55,0,0,1,.07-.63,2.21,2.21,0,0,1,.13-.23.88.88,0,0,1,.15-.19l.21-.16a2.25,2.25,0,0,1,.47-.24,2.6,2.6,0,0,1,.58-.19,5.14,5.14,0,0,1,1-.06,7.42,7.42,0,0,1,.86,0,3.05,3.05,0,0,1,.48.19,3.69,3.69,0,0,1,.51.29,5,5,0,0,1,.47.42,3.25,3.25,0,0,1,.39.41,2,2,0,0,1,.16.25,1.13,1.13,0,0,1,.09.2,1.26,1.26,0,0,1,.07.25,6.94,6.94,0,0,1,0,1,6.31,6.31,0,0,1-.09,1,1.56,1.56,0,0,1-.15.41,2.93,2.93,0,0,1-.21.39,2.79,2.79,0,0,1-.24.31,3.22,3.22,0,0,1-.26.29,3.63,3.63,0,0,1-.35.3,4.14,4.14,0,0,1-.39.28l-.39.21a4.7,4.7,0,0,1-.45.17,4.37,4.37,0,0,1-.52.12,5.75,5.75,0,0,1-.95,0,4,4,0,0,1-1-.12,2.12,2.12,0,0,1-.48-.22,3,3,0,0,1-.4-.32,3.3,3.3,0,0,1-.37-.44,4.36,4.36,0,0,1-.36-.59,5.42,5.42,0,0,1-.29-.7,4.8,4.8,0,0,1-.17-.59,3.68,3.68,0,0,1-.06-.43,7.09,7.09,0,0,1,.07-.89,5,5,0,0,1,.15-.83,1.46,1.46,0,0,1,.16-.3,3.92,3.92,0,0,1,.26-.34"/></g><g id="HTML-2" data-name="HTML"><path id="STROKE_D902FAFE-5EF7-4BD6-BDA7-E23FF16C16D1" data-name="STROKE D902FAFE-5EF7-4BD6-BDA7-E23FF16C16D1" class="cls-3" d="M6.51,105.85c0,.14-.07.31-.11.52s-.07.4-.1.58-.11.69-.25,1.55-.24,1.57-.31,2.11-.13.91-.15,1.09l-.06.55c0,.18,0,.36,0,.55s0,.38,0,.62,0,1.14.14,2.74.17,2.43.21,2.53a.57.57,0,0,0,.15.21.55.55,0,0,0,.15.11l.09,0h.18"/><path id="STROKE_40D73C47-585C-43D4-8E32-AF2A5C57AF16" data-name="STROKE 40D73C47-585C-43D4-8E32-AF2A5C57AF16" class="cls-3" d="M13.74,105.31c0,.16,0,1.85.1,5.07s.09,4.93.11,5.12.07.41.13.69a9.44,9.44,0,0,0,.24,1,3.27,3.27,0,0,0,.24.65.38.38,0,0,0,.11.13s.05,0,.08,0l.08,0s.06,0,.11-.08a.9.9,0,0,0,.18-.2"/><path id="STROKE_D1D69A8B-9C12-46DA-95C7-DE6449019AE3" data-name="STROKE D1D69A8B-9C12-46DA-95C7-DE6449019AE3" class="cls-3" d="M14.58,112.69l-.12-.09a.4.4,0,0,0-.17-.07.59.59,0,0,0-.19,0l-.34,0a9.12,9.12,0,0,0-1.21.33c-.63.21-1.29.43-2,.68s-1.11.4-1.3.45-.64.16-1.36.3a10.12,10.12,0,0,1-1.33.21,6,6,0,0,1-.7,0,4.55,4.55,0,0,1-1-.17l-.62-.19L4.16,114a.53.53,0,0,1-.14-.1l-.15-.1"/><path id="STROKE_CFB16A0A-A298-49EA-96CE-B8AFBA748C03" data-name="STROKE CFB16A0A-A298-49EA-96CE-B8AFBA748C03" class="cls-3" d="M19.28,112.41l.31.49c.14.22.35.51.64.88a10.8,10.8,0,0,0,.72.88c.2.22.5.52.91.9s.8.71,1.15,1,.85.63,1.49,1.07,1.1.76,1.38.94l.64.41"/><path id="STROKE_17399CA1-F034-49CA-944E-3E2E3DB13472" data-name="STROKE 17399CA1-F034-49CA-944E-3E2E3DB13472" class="cls-3" d="M29.27,112.23a1.19,1.19,0,0,1,.22.14,1.66,1.66,0,0,1,.05.16,1.57,1.57,0,0,1,0,.4c0,.18-.06.45-.12.8s-.21,1-.43,2-.35,1.65-.4,1.92-.11.55-.17.83-.1.55-.16.84-.11.61-.17,1-.13.7-.18,1-.17,1-.34,2-.31,1.82-.41,2.31-.23,1.07-.4,1.71-.29,1-.35,1.19a1.43,1.43,0,0,1-.23.39c-.08.11-.13.16-.16.17h-.15l0,0-.23-.23"/><path id="STROKE_2F48C6AF-30A7-4E71-9E65-B4F5A6955655" data-name="STROKE 2F48C6AF-30A7-4E71-9E65-B4F5A6955655" class="cls-3" d="M35.17,113.06s0,.57,0,1.54,0,1.53,0,1.64,0,.33,0,.66.1,1.12.23,2.36.21,2,.26,2.35.1.66.16,1,.18.89.36,1.67.31,1.27.39,1.51a3.61,3.61,0,0,0,.19.48.74.74,0,0,0,.17.24c.07.07.12.1.14.1a1,1,0,0,0,.28-.12"/><path id="STROKE_58977877-19B9-401C-A7CD-D7E8726BDAC7" data-name="STROKE 58977877-19B9-401C-A7CD-D7E8726BDAC7" class="cls-3" d="M35.21,113.67A5.6,5.6,0,0,1,35,113a1.8,1.8,0,0,1,0-.37,1,1,0,0,1,0-.27,1,1,0,0,1,.15-.27,1.11,1.11,0,0,1,.36-.3,2.39,2.39,0,0,1,.51-.23,7.35,7.35,0,0,1,1.26-.18,9.56,9.56,0,0,1,1.64,0,8.9,8.9,0,0,1,1,.11,6.29,6.29,0,0,1,.88.26,6.17,6.17,0,0,1,.77.31,4.24,4.24,0,0,1,.54.39,2.6,2.6,0,0,1,.44.42c.07.1.12.19.17.27a2,2,0,0,1,.12.31,2.35,2.35,0,0,1,.08.61,3.28,3.28,0,0,1,0,.66,4.88,4.88,0,0,1-.17.6,4.34,4.34,0,0,1-.35.72,5.19,5.19,0,0,1-.54.72,10.36,10.36,0,0,1-1.25,1.17,15.81,15.81,0,0,1-1.36,1.08,6.64,6.64,0,0,1-.78.45,5.63,5.63,0,0,1-.59.25l-.52.13a3,3,0,0,1-.49,0,1.71,1.71,0,0,1-.5-.09,1.67,1.67,0,0,1-.43-.18,1.71,1.71,0,0,1-.26-.21,2.38,2.38,0,0,1-.28-.36,6.36,6.36,0,0,1-.46-.84"/><path id="STROKE_0DF4ED38-51B9-41AA-B8E7-76D3802DC810" data-name="STROKE 0DF4ED38-51B9-41AA-B8E7-76D3802DC810" class="cls-3" d="M45.27,114.65h1c.24,0,.61-.05,1.11-.11s.82-.11,1-.14l.57-.11.74-.17.71-.15.8-.15c.3,0,1-.18,2-.41s1.51-.35,1.51-.37a.71.71,0,0,0-.06-.14,2.34,2.34,0,0,0-.41-.42c-.24-.2-.44-.35-.59-.46s-.57-.35-1.24-.72a8.68,8.68,0,0,0-1.36-.66,1.77,1.77,0,0,0-.6-.08l-.3,0-.32.16a6.09,6.09,0,0,0-.93.74,11.86,11.86,0,0,0-1,1c-.2.24-.36.44-.46.58a4.53,4.53,0,0,0-.3.46c-.09.16-.18.34-.27.53a8.71,8.71,0,0,0-.36,1c-.14.44-.24.84-.32,1.2a6.78,6.78,0,0,0-.12,1.16,3.6,3.6,0,0,0,.08,1,3.13,3.13,0,0,0,.14.45l.1.17a3.42,3.42,0,0,0,.25.29,3.29,3.29,0,0,0,.43.37c.17.13.32.22.44.3l.37.21.4.2.74.3c.34.14.63.24.85.32s.6.17,1.11.29a10.48,10.48,0,0,0,1.6.27,7.87,7.87,0,0,0,1.13.06,5.16,5.16,0,0,0,1-.2,4.29,4.29,0,0,0,.76-.26l.21-.18a1.28,1.28,0,0,0,.19-.23,2.75,2.75,0,0,0,.15-.25c0-.09.09-.17.12-.26a3.91,3.91,0,0,0,.16-.47c.07-.23.14-.47.2-.71"/><path id="STROKE_BD2078A9-F4C7-4230-8603-114B7DBFFD3D" data-name="STROKE BD2078A9-F4C7-4230-8603-114B7DBFFD3D" class="cls-3" d="M58.22,113.31c.11.63.17,1,.19,1.14s.1.44.22.94.28,1,.47,1.63.41,1.17.65,1.78.42,1.06.56,1.35.22.46.24.49,0,0,0,0v0s0,0,0-.07a2.3,2.3,0,0,0-.1-.3c-.06-.18-.12-.34-.18-.5s-.19-.52-.38-1.1-.33-.94-.38-1.12-.09-.39-.14-.65-.08-.51-.1-.74a6.71,6.71,0,0,1,0-.76c0-.27.06-.46.08-.55s.09-.26.19-.52a3.28,3.28,0,0,1,.36-.67,3.57,3.57,0,0,1,.49-.56,5.06,5.06,0,0,1,.57-.45,9,9,0,0,1,1.25-.56,10.11,10.11,0,0,1,1.34-.46,5.43,5.43,0,0,1,.8-.12,3.88,3.88,0,0,1,.69,0,2.43,2.43,0,0,1,.53.16,1.28,1.28,0,0,1,.43.26,1.23,1.23,0,0,1,.23.28,3.21,3.21,0,0,1,.18.37"/><path id="STROKE_600B9C39-D7D7-4577-A112-B8E7ED04DC91" data-name="STROKE 600B9C39-D7D7-4577-A112-B8E7ED04DC91" class="cls-3" d="M69.55,105.78a1.5,1.5,0,0,1,.07.17,1.4,1.4,0,0,1,0,.29c0,.18,0,.32,0,.42s0,.27,0,.54,0,.55,0,.87,0,.58,0,.8,0,1.16,0,2.85,0,2.63.08,2.84.07.44.12.66.11.45.17.67.16.47.27.75.22.53.35.78a7.24,7.24,0,0,0,.41.71,5.17,5.17,0,0,0,.42.58c.14.16.3.33.48.5a7,7,0,0,0,.6.48,6.41,6.41,0,0,0,.65.38,5.21,5.21,0,0,0,.61.27,4.61,4.61,0,0,0,.75.18,7.35,7.35,0,0,0,.85.11,8,8,0,0,0,1.32-.11,6.17,6.17,0,0,0,1.2-.23,2.48,2.48,0,0,0,.49-.24,1.69,1.69,0,0,0,.34-.28,1.5,1.5,0,0,0,.19-.25.79.79,0,0,0,.09-.23c0-.08,0-.16,0-.22s0-.18,0-.32,0-.25,0-.32a1.68,1.68,0,0,0-.08-.24c0-.08-.06-.17-.1-.26l-.19-.42"/><path id="STROKE_161AFD91-097E-4E88-9222-874160727835" data-name="STROKE 161AFD91-097E-4E88-9222-874160727835" class="cls-3" d="M76.18,111.32a.51.51,0,0,0,0-.09s0,0,0,0,0,0,0,0a.2.2,0,0,0-.11,0,3.33,3.33,0,0,0-.59.09,11.5,11.5,0,0,0-1.3.32c-.5.14-1.13.34-1.88.57s-1.2.38-1.36.41l-.45.1-.36.05h-.51a3.9,3.9,0,0,1-.78-.12l-.49-.13-.58-.28"/><path id="STROKE_FC1E0CAD-ABB6-42CD-B8D9-06E42C555868" data-name="STROKE FC1E0CAD-ABB6-42CD-B8D9-06E42C555868" class="cls-3" d="M80,114.54l.4-.21.45-.2c.17-.07.59-.18,1.24-.35s1.29-.31,1.9-.41l1.75-.32a10.69,10.69,0,0,0,1.36-.34,2.54,2.54,0,0,0,.78-.4.9.9,0,0,0,.31-.46.8.8,0,0,0,0-.4A1,1,0,0,0,88,111a1.71,1.71,0,0,0-.49-.43,1.8,1.8,0,0,0-.51-.23,2.62,2.62,0,0,0-.72,0,4.57,4.57,0,0,0-1.26.23,7,7,0,0,0-1.11.43,6.56,6.56,0,0,0-.76.5,5,5,0,0,0-.56.48,2.89,2.89,0,0,0-.31.37,4.38,4.38,0,0,0-.28.42,5.81,5.81,0,0,0-.28.56c-.09.22-.18.46-.26.72a6.73,6.73,0,0,0-.19.83,5.35,5.35,0,0,0-.08.89,4.58,4.58,0,0,0,.07.95,3.81,3.81,0,0,0,.13.63,2.54,2.54,0,0,0,.17.36,2.38,2.38,0,0,0,.21.34c.06.07.16.16.29.28l.31.25a2.4,2.4,0,0,0,.28.14l.38.13a9.22,9.22,0,0,0,1.37.11A10.25,10.25,0,0,0,86,119a11.19,11.19,0,0,0,1.31-.3c.58-.16,1-.29,1.23-.38l1-.38a8.36,8.36,0,0,1,.85-.29l.18,0h.05"/><path id="STROKE_34B69F3C-F2E7-436D-9D03-9AA5B3B28EAC" data-name="STROKE 34B69F3C-F2E7-436D-9D03-9AA5B3B28EAC" class="cls-3" d="M98,109.62c-.27.52-.5,1-.69,1.36s-.39.74-.56,1.08l-.4.74-1.57,2.77c-1,1.69-1.56,2.71-1.78,3.06s-.36.56-.42.63a.42.42,0,0,1-.17.14s-.08,0-.08,0,0,0,0,0a.65.65,0,0,1,0-.17,2.23,2.23,0,0,1,0-.32c0-.14.1-.65.25-1.55"/><path id="STROKE_35C2617B-7AEC-4D0D-BA83-DABD3CD3605B" data-name="STROKE 35C2617B-7AEC-4D0D-BA83-DABD3CD3605B" class="cls-3" d="M91.34,112.12l.42,0H92a4.55,4.55,0,0,1,.48.14,4.19,4.19,0,0,1,.71.34c.24.14.45.29.65.43l.41.33.32.27.61.54.93.8.79.66.58.45c.19.15.81.58,1.85,1.3s1.8,1.22,2.29,1.5a3.39,3.39,0,0,0,1,.48c.21,0,.33,0,.35,0a.36.36,0,0,0,0-.11,1,1,0,0,0,0-.18c0-.07,0-.26-.08-.57"/><path id="STROKE_B2168078-9F49-4272-AAD8-582FF82222D0" data-name="STROKE B2168078-9F49-4272-AAD8-582FF82222D0" class="cls-3" d="M105,106.07l0-.48s0,.33,0,1,0,1.18-.06,1.64-.07.91-.1,1.38-.07,1-.09,1.65,0,1.34.07,2.1a9.3,9.3,0,0,0,.16,1.37,3.15,3.15,0,0,0,.13.4,2.1,2.1,0,0,0,.15.3c.06.1.12.2.18.28a1.84,1.84,0,0,0,.23.27,3.7,3.7,0,0,0,.28.28,5.13,5.13,0,0,0,.65.48c.33.23.6.4.81.52s.56.27,1,.47a10.53,10.53,0,0,0,1.28.47,4.73,4.73,0,0,0,.83.19,1.49,1.49,0,0,0,.32,0,.31.31,0,0,0,0-.18"/><path id="STROKE_65A658E1-D1A0-4C91-AC97-4E39B5228AFA" data-name="STROKE 65A658E1-D1A0-4C91-AC97-4E39B5228AFA" class="cls-3" d="M113.56,109.73a.5.5,0,0,1-.17.16,2,2,0,0,1-.36.14,9.07,9.07,0,0,1-.92.21l-1.17.23c-.36.06-.77.15-1.25.26s-1.16.29-2,.55l-1.65.48-.94.24a9.87,9.87,0,0,1-1,.19c-.28,0-.52,0-.7,0l-.51,0-.51-.07"/><path id="STROKE_80D709FE-59E2-4773-AFCA-9E2A7E36E584" data-name="STROKE 80D709FE-59E2-4773-AFCA-9E2A7E36E584" class="cls-3" d="M126.77,119.5l.16.14.14.08a10.61,10.61,0,0,0,.55-2.36c0-.36,0-.79,0-1.28s-.09-2.53-.18-6.14-.16-5.41-.17-5.42h0a.07.07,0,0,0,0,0,1.09,1.09,0,0,0,0,.17c0,.08,0,.75.07,2s.1,1.93.13,2.07a5.73,5.73,0,0,0,.26.73,4.88,4.88,0,0,0,.31.68c.06.1.16.26.31.47a6.17,6.17,0,0,0,.52.65,5.39,5.39,0,0,0,.42.45c.08.08.18.16.29.25l.33.23.38.21a7.13,7.13,0,0,0,.82.28,7.77,7.77,0,0,0,1.43.27,7.4,7.4,0,0,0,1.76,0,5.53,5.53,0,0,0,1.1-.17,2.09,2.09,0,0,0,.3-.14,1.44,1.44,0,0,0,.25-.18,2,2,0,0,0,.21-.2l.19-.25.19-.32c.06-.12.17-.41.34-.88a23.1,23.1,0,0,0,.59-2.24c.23-1,.36-1.7.42-2s.08-.55.1-.66,0-.16,0-.12,0,.3,0,.78,0,2,0,4.43,0,3.77,0,3.91,0,.47.09,1,.11,1.07.2,1.71.19,1.23.29,1.76.19.92.26,1.17a2.76,2.76,0,0,0,.12.38,0,0,0,0,0,0,0,1.62,1.62,0,0,0,0-.18"/><path id="STROKE_AA4EDE5F-23FE-4C72-97A8-18F949777C5B" data-name="STROKE AA4EDE5F-23FE-4C72-97A8-18F949777C5B" class="cls-3" d="M147.65,114.72c.23-.07.44-.15.64-.23a3,3,0,0,0,.47-.23,2.39,2.39,0,0,0,.38-.32,1.73,1.73,0,0,0,.36-.51,1.36,1.36,0,0,0,.13-.58,1.51,1.51,0,0,0,0-.43,2.81,2.81,0,0,0-.42-.58,2.43,2.43,0,0,0-.63-.57,1.93,1.93,0,0,0-.62-.16,1.66,1.66,0,0,0-.64,0,2.36,2.36,0,0,0-.62.26,5.34,5.34,0,0,0-.91.71,9.44,9.44,0,0,0-1,1c-.28.34-.46.56-.53.66l-.2.32a9.76,9.76,0,0,0-.43.89,11.9,11.9,0,0,0-.59,1.61,9.72,9.72,0,0,0-.31,1.43,3.41,3.41,0,0,0,0,1,3,3,0,0,0,.09.5.62.62,0,0,0,.08.12l.11.1a.51.51,0,0,0,.16.09,6.7,6.7,0,0,0,1.16.1,9.93,9.93,0,0,0,1.57,0,13.25,13.25,0,0,0,1.58-.4,10.11,10.11,0,0,0,1.41-.52,2.81,2.81,0,0,0,.43-.27,2.19,2.19,0,0,0,.24-.22,1.85,1.85,0,0,0,.22-.29,4.75,4.75,0,0,0,.21-.53,8.47,8.47,0,0,0,.22-1.6c.06-.81.09-1.32.08-1.52s-.05-.4-.09-.63a2.59,2.59,0,0,0-.09-.35h0l0,0,0,.07a1.59,1.59,0,0,0-.05.3,4.57,4.57,0,0,0-.05.52q0,.25,0,1.26c0,.67.05,1.14.09,1.42a11,11,0,0,0,.27,1.2,6.71,6.71,0,0,0,.41,1.21,6.21,6.21,0,0,0,.32.62,4,4,0,0,0,.38.42,2.85,2.85,0,0,0,.38.32l.3.14a2.19,2.19,0,0,0,.57.08,2.48,2.48,0,0,0,.65,0,3.06,3.06,0,0,0,.61-.22,3.65,3.65,0,0,0,.68-.43,4.1,4.1,0,0,0,.6-.57,6.72,6.72,0,0,0,.5-.66,4.72,4.72,0,0,0,.35-.64c.09-.19.17-.4.25-.61s.13-.42.17-.59.09-.39.14-.64.08-.48.11-.66"/><path id="STROKE_30671C96-1EA9-4B81-B510-E6B4A628966E" data-name="STROKE 30671C96-1EA9-4B81-B510-E6B4A628966E" class="cls-3" d="M155.29,112.8l.12.19s.08.14.17.3.18.37.28.6.24.6.41,1.08l.71,2.1a16.28,16.28,0,0,0,.58,1.6c.09.16.14.23.16.22l0,0a1,1,0,0,1,0-.11,4.2,4.2,0,0,0,0-.47,5.21,5.21,0,0,0-.08-.6c0-.15-.09-.36-.17-.62s-.22-.65-.4-1.16-.31-.93-.39-1.24a4,4,0,0,1-.11-.87c0-.26,0-.44,0-.53a3.75,3.75,0,0,1,.14-.47,4.54,4.54,0,0,1,.3-.68c.12-.22.25-.43.38-.63s.25-.34.33-.44.2-.21.35-.35a3.53,3.53,0,0,1,.34-.31l.36-.24a4.09,4.09,0,0,1,.66-.32,4.76,4.76,0,0,1,.8-.24,4.94,4.94,0,0,1,1.14-.07,6,6,0,0,1,.94.06,4,4,0,0,1,.63.23,3.58,3.58,0,0,1,.74.39,2.56,2.56,0,0,1,.44.4l.16.22.09.25"/><path id="STROKE_A8091ED4-9F1F-4CFB-ABD8-C522BF585D34" data-name="STROKE A8091ED4-9F1F-4CFB-ABD8-C522BF585D34" class="cls-3" d="M166.37,105.75a.48.48,0,0,0-.22,0,.37.37,0,0,0-.13.12,1.71,1.71,0,0,0-.09.44c0,.24,0,.49,0,.75s0,.49,0,.67,0,.77,0,1.72,0,1.56,0,1.8,0,.5,0,.76,0,1.06.12,2.43.14,2.31.21,2.85.14.94.2,1.21.09.43.1.47l.06.17"/><path id="STROKE_AC03825B-AD3E-4F91-9C2B-5DBCBFF7B725" data-name="STROKE AC03825B-AD3E-4F91-9C2B-5DBCBFF7B725" class="cls-3" d="M171.33,111.54s0,.06,0,.07a0,0,0,0,1,0,0l-.31.26c-.21.17-.44.34-.7.52l-.66.46-.81.55-1.21.82c-.44.3-.89.63-1.35,1s-.68.57-.67.63.07.14.2.2l.54.24c.22.09.4.16.51.22l.34.18.38.22.42.25.42.23.63.28c.27.11.72.27,1.36.48l1.48.51.74.27.65.29.64.31.56.23a2.06,2.06,0,0,0,.48.15h.16a.67.67,0,0,0,.2-.12"/><path id="STROKE_F86F82F8-D891-412C-85F2-481DE89E1A2D" data-name="STROKE F86F82F8-D891-412C-85F2-481DE89E1A2D" class="cls-3" d="M177.44,114.76l0,.06s0,.6,0,1.75a18.57,18.57,0,0,0,.11,2.28,5.28,5.28,0,0,0,.15.73c.05.11.09.22.13.3a1.35,1.35,0,0,0,.15.26,2,2,0,0,0,.19.22,1.53,1.53,0,0,0,.18.18l.21.14a2,2,0,0,0,.32.15,3.11,3.11,0,0,0,.43.14,5.84,5.84,0,0,0,1,0,6.09,6.09,0,0,0,1.27-.11,5.79,5.79,0,0,0,.92-.29,4.6,4.6,0,0,0,.77-.39,5.66,5.66,0,0,0,.53-.39,4.5,4.5,0,0,0,.47-.49,4.82,4.82,0,0,0,.41-.53,5.51,5.51,0,0,0,.29-.55,6.23,6.23,0,0,0,.24-.65,6.16,6.16,0,0,0,.13-.61,5.78,5.78,0,0,0,0-1.05,7.06,7.06,0,0,0-.1-1c-.05-.15-.09-.29-.14-.41a3.73,3.73,0,0,0-.15-.38c-.06-.14-.16-.34-.29-.6s-.25-.5-.33-.69-.15-.35-.19-.48-.08-.24-.1-.31l0-.17"/><path id="STROKE_8AFEEA4C-B9CD-47FC-BE4A-3206713042C3" data-name="STROKE 8AFEEA4C-B9CD-47FC-BE4A-3206713042C3" class="cls-3" d="M187.57,112.55c.25.83.44,1.49.58,2s.27,1,.39,1.49.23,1,.32,1.43.21,1.34.4,2.7.34,2.48.48,3.35.28,1.71.44,2.5.31,1.51.46,2.15a13.09,13.09,0,0,1,.24,1.29c0,.23,0,.35,0,.37a.08.08,0,0,1-.06,0l0,0-.1-.06-.33-.29"/><path id="STROKE_1ACEE579-0A64-4FB2-A517-A713EB9C1EBD" data-name="STROKE 1ACEE579-0A64-4FB2-A517-A713EB9C1EBD" class="cls-3" d="M187.54,111.83a3.27,3.27,0,0,1,.44-.46,2.73,2.73,0,0,1,.41-.28l.31-.15.39-.13a4.68,4.68,0,0,1,.59-.13,7.06,7.06,0,0,1,.9-.09c.39,0,.66,0,.8,0l.51.06a14.59,14.59,0,0,1,1.43.36c.75.22,1.31.4,1.68.55s.78.36,1.26.62a9.54,9.54,0,0,1,1,.62,4.77,4.77,0,0,1,.51.44,3.78,3.78,0,0,1,.38.43,3,3,0,0,1,.29.44,2.88,2.88,0,0,1,.21.44,3,3,0,0,1,.13.45,3.59,3.59,0,0,1,.05.46,2.77,2.77,0,0,1-.06.53,2.85,2.85,0,0,1-.2.63,4.29,4.29,0,0,1-.55.82,6,6,0,0,1-1,1,10.43,10.43,0,0,1-1.41.94,18.85,18.85,0,0,1-1.8.89,17.11,17.11,0,0,1-1.83.66,15.24,15.24,0,0,1-1.7.37,10.23,10.23,0,0,1-1.63.11,6.68,6.68,0,0,1-1.25-.1,4.87,4.87,0,0,1-.92-.29,4.41,4.41,0,0,1-.81-.46,3.87,3.87,0,0,1-.59-.54,4.48,4.48,0,0,1-.42-.55c-.12-.18-.31-.54-.59-1.06"/><path id="STROKE_61320957-8110-4347-8E6C-834A2B375239" data-name="STROKE 61320957-8110-4347-8E6C-834A2B375239" class="cls-3" d="M208.85,106.51c.08-.48.12-.73.13-.76s0,0,.05,0a3.63,3.63,0,0,1,.11.9c.05.59.1,2.19.15,4.82s.07,4,.08,4.09l.07.41c0,.17.09.43.18.79s.15.61.2.74.14.37.28.7a4.77,4.77,0,0,0,.37.71,1.43,1.43,0,0,0,.3.34,1.57,1.57,0,0,0,.25.18,14.87,14.87,0,0,0,1.61.2,18.62,18.62,0,0,0,2.73.09c.82,0,1.66-.1,2.54-.18s1.4-.14,1.56-.17a1,1,0,0,0,.36-.11c.07,0,.11-.08.11-.09a.18.18,0,0,0,0-.06.64.64,0,0,0-.06-.15"/><path id="STROKE_84B1165B-9174-4305-8E7D-5F2BB2843C4D" data-name="STROKE 84B1165B-9174-4305-8E7D-5F2BB2843C4D" class="cls-3" d="M227.35,114a8.62,8.62,0,0,0,.64-.67,2.64,2.64,0,0,0,.33-.44,2.6,2.6,0,0,0,.19-.42,3.24,3.24,0,0,0,.07-.86,2.35,2.35,0,0,0-.14-.91,1.66,1.66,0,0,0-.29-.45,1.35,1.35,0,0,0-.32-.26,2.64,2.64,0,0,0-.58-.17,3.45,3.45,0,0,0-.72-.07,3.58,3.58,0,0,0-.69.11,4.94,4.94,0,0,0-.67.21,4.19,4.19,0,0,0-.51.27,3.68,3.68,0,0,0-.51.37,4.36,4.36,0,0,0-.37.36,9.75,9.75,0,0,0-.6.89,11.92,11.92,0,0,0-.81,1.47,13.64,13.64,0,0,0-.59,1.6,12.42,12.42,0,0,0-.42,1.82,9,9,0,0,0-.13,1.52,2.53,2.53,0,0,0,.17.9,1.76,1.76,0,0,0,.19.41l.11.08a.53.53,0,0,0,.15.08,1.67,1.67,0,0,0,.43.1,2.4,2.4,0,0,0,.56,0,6.08,6.08,0,0,0,.61,0,9.62,9.62,0,0,0,1.19-.26c.53-.14,1-.27,1.28-.39a12.54,12.54,0,0,0,1.19-.55,7.84,7.84,0,0,0,1.12-.67,4.87,4.87,0,0,0,.57-.46,2.6,2.6,0,0,0,.24-.29,1.93,1.93,0,0,0,.19-.32l.12-.28a3.12,3.12,0,0,0,.08-.42c0-.22.06-.37.07-.46s0-.24,0-.46,0-.43,0-.65l-.06-.65c0-.21,0-.45-.08-.73s0-.43,0-.46a.13.13,0,0,1,0-.05s0,0,0,.09,0,.28,0,.63.05,1,.13,2,.13,1.52.16,1.65a4,4,0,0,0,.17.56,3.38,3.38,0,0,0,.21.52,1.57,1.57,0,0,0,.18.31,3.5,3.5,0,0,0,.32.39,2.79,2.79,0,0,0,.37.35,2.16,2.16,0,0,0,.31.19,3.22,3.22,0,0,0,.39.15,6.09,6.09,0,0,0,1.19,0,4.74,4.74,0,0,0,1.31-.12,3.88,3.88,0,0,0,.61-.24,3.16,3.16,0,0,0,.5-.34,3.38,3.38,0,0,0,.43-.41,3.87,3.87,0,0,0,.35-.45,4.29,4.29,0,0,0,.26-.45c.08-.15.15-.29.21-.43s.11-.28.15-.4.14-.41.29-.89"/><path id="STROKE_17C8FF21-E73B-4123-9EB8-CD7331D506F3" data-name="STROKE 17C8FF21-E73B-4123-9EB8-CD7331D506F3" class="cls-3" d="M236,111.65l.11.31c0,.12.08.27.13.46s.1.42.15.68.14.72.25,1.35.23,1.27.36,1.92.21,1.08.26,1.32.08.43.1.58,0,.23,0,.21,0,0,0-.11a1.42,1.42,0,0,1-.07-.22c0-.08-.06-.24-.11-.49a11,11,0,0,1-.13-1.24c0-.59-.05-1,0-1.21a5.9,5.9,0,0,1,.1-.7,6.44,6.44,0,0,1,.29-1,8.41,8.41,0,0,1,.5-1.22,7.86,7.86,0,0,1,.43-.78c.1-.15.19-.29.28-.4a4.42,4.42,0,0,1,.4-.44,4.91,4.91,0,0,1,.6-.49,5,5,0,0,1,.67-.37,4.51,4.51,0,0,1,.68-.22,5.12,5.12,0,0,1,1-.08,5,5,0,0,1,.94.07,4.69,4.69,0,0,1,.6.2l.43.21a2.34,2.34,0,0,1,.27.2,3.61,3.61,0,0,1,.36.35,4.47,4.47,0,0,1,.35.4q.11.15.21.33a3.39,3.39,0,0,1,.2.38,3.83,3.83,0,0,1,.17.43,7.1,7.1,0,0,1,.21.86,37,37,0,0,1,.16,3.91c0,2.18,0,3.28,0,3.29h0V120s0-.11,0-.21,0-.34.06-.71.09-1.07.17-2.07"/><path id="STROKE_C07D39A2-4F3C-4589-B91B-D258E84F6958" data-name="STROKE C07D39A2-4F3C-4589-B91B-D258E84F6958" class="cls-3" d="M258,113.1l.24-.65c.06-.2.11-.38.14-.53a2.78,2.78,0,0,0,.05-.52,3.07,3.07,0,0,0-.05-.53,3.63,3.63,0,0,0-.28-.79,4.56,4.56,0,0,0-.67-1.06,6.62,6.62,0,0,0-.59-.67,5.12,5.12,0,0,0-.62-.39,4.6,4.6,0,0,0-.73-.33,3.39,3.39,0,0,0-.74-.1,2.83,2.83,0,0,0-.62,0l-.36.1-.37.16a5.85,5.85,0,0,0-.65.47,8.39,8.39,0,0,0-.95.88c-.31.34-.56.63-.73.86s-.31.44-.43.63-.3.54-.55,1-.45,1-.62,1.45-.27.78-.32,1-.08.37-.11.54a4.08,4.08,0,0,0-.06.53,5.66,5.66,0,0,0,0,.58,8.69,8.69,0,0,0,.13,1.14,8,8,0,0,0,.19,1,2.58,2.58,0,0,0,.13.31l.17.28a2.25,2.25,0,0,0,.21.24,2.07,2.07,0,0,0,.25.19,1.91,1.91,0,0,0,.32.17,2.85,2.85,0,0,0,.42.16,7.87,7.87,0,0,0,1.12.13,7.69,7.69,0,0,0,1.37,0,5.59,5.59,0,0,0,.94-.19,4.58,4.58,0,0,0,.87-.33,5.72,5.72,0,0,0,.78-.45q.35-.24.6-.45l.49-.46c.15-.16.27-.3.37-.42a4,4,0,0,0,.26-.35,3.47,3.47,0,0,0,.21-.37A2.39,2.39,0,0,0,258,116a3,3,0,0,0,.14-.42,7.78,7.78,0,0,0,.12-1.06,6.2,6.2,0,0,0-.09-1.62,3,3,0,0,0-.2-.81s-.07,0-.11,0a.61.61,0,0,0-.07.18,1.5,1.5,0,0,0,0,.2s0,.17,0,.34a6.33,6.33,0,0,0,.06.73c0,.31.09.7.17,1.17l.15.87c0,.11.06.25.09.41l.18.68c.08.3.15.53.2.69s.21.64.48,1.41.43,1.26.5,1.46.14.45.23.74.2.75.34,1.38.23,1.11.27,1.45.09,1,.13,1.86.05,1.55,0,2-.07.81-.13,1.21a9.12,9.12,0,0,1-.62,2.17,8.16,8.16,0,0,1-.49.93,4.23,4.23,0,0,1-.53.71,2.83,2.83,0,0,1-.54.47,3.08,3.08,0,0,1-.63.31,3.44,3.44,0,0,1-1,.13,3.26,3.26,0,0,1-1-.12,2.39,2.39,0,0,1-.67-.35,3.53,3.53,0,0,1-.65-.64,11.94,11.94,0,0,1-.93-1.55,17,17,0,0,1-.76-1.57,6.43,6.43,0,0,1-.24-.77c-.05-.23-.08-.41-.1-.56s0-.29,0-.45a2.21,2.21,0,0,1,.2-.66,1.38,1.38,0,0,1,.28-.49,1.16,1.16,0,0,1,.27-.11,3.68,3.68,0,0,1,.74,0"/><path id="STROKE_F84D2906-92B9-4A79-AA5A-1C7B4D8E9F1F" data-name="STROKE F84D2906-92B9-4A79-AA5A-1C7B4D8E9F1F" class="cls-3" d="M263,110.74c0,.21,0,.4,0,.59s0,.41,0,.67,0,.74.09,1.44a11,11,0,0,0,.17,1.31,3.81,3.81,0,0,0,.14.47,3.62,3.62,0,0,0,.3.56,4.21,4.21,0,0,0,.39.57,6.55,6.55,0,0,0,.59.58,7.05,7.05,0,0,0,.64.54,3.22,3.22,0,0,0,.52.3,4.35,4.35,0,0,0,.59.25,5.14,5.14,0,0,0,1,.19,4.82,4.82,0,0,0,1.37,0,3.73,3.73,0,0,0,.88-.2,2.34,2.34,0,0,0,.43-.26,2.07,2.07,0,0,0,.34-.3,2,2,0,0,0,.24-.33,4,4,0,0,0,.22-.42c.06-.15.12-.31.17-.48s0-1.17,0-3a18.43,18.43,0,0,0-.21-3.4,5.57,5.57,0,0,0-.31-.9,3.2,3.2,0,0,0-.21-.4.83.83,0,0,0-.12-.17,1.55,1.55,0,0,0-.13-.17"/><path id="STROKE_D1544BF5-A503-4FF9-BCCE-0920E50B964C" data-name="STROKE D1544BF5-A503-4FF9-BCCE-0920E50B964C" class="cls-3" d="M280.05,113.28c.2-.69.33-1.18.39-1.48a6.65,6.65,0,0,0,.09-1.26,4.21,4.21,0,0,0-.14-1.3,2.77,2.77,0,0,0-.23-.59,1,1,0,0,0-.4-.29,1,1,0,0,0-.28-.06h-.29a3.93,3.93,0,0,0-.48.12,6.7,6.7,0,0,0-1.14.55,8.66,8.66,0,0,0-1.34.9,9.43,9.43,0,0,0-1,.95,8.2,8.2,0,0,0-.83,1,9.23,9.23,0,0,0-.52.79,8,8,0,0,0-.44,1,9.86,9.86,0,0,0-.48,1.45,9.37,9.37,0,0,0-.25,1.37,4.4,4.4,0,0,0,0,.78,1.81,1.81,0,0,0,.1.42,1.48,1.48,0,0,0,.13.31l.11.15.19.15a1.75,1.75,0,0,0,.27.16,4.22,4.22,0,0,0,.45.14,7.85,7.85,0,0,0,1.09.12,9.1,9.1,0,0,0,1.25,0c.3,0,.6-.07.9-.13a8.15,8.15,0,0,0,1-.26,12.19,12.19,0,0,0,1.4-.56,11.07,11.07,0,0,0,1.11-.55,3.29,3.29,0,0,0,.37-.27,2.2,2.2,0,0,0,.2-.23,1.35,1.35,0,0,0,.13-.21l.06-.18a2.83,2.83,0,0,0,0-.43,3.82,3.82,0,0,0-.12-.85c-.08-.34-.14-.59-.2-.77s-.12-.31-.16-.42-.09-.22-.13-.3a.7.7,0,0,0-.12-.18s-.06,0-.08.15a2.91,2.91,0,0,0,0,.53c0,.22,0,.48.06.77s.07.58.11.88.12.64.21,1,.17.67.22.8a4.11,4.11,0,0,0,.41.75l.16.16.19.14a1.91,1.91,0,0,0,.25.13l.32.11a4.36,4.36,0,0,0,.75.09,5.37,5.37,0,0,0,1.68-.15,5.11,5.11,0,0,0,.77-.27,5.05,5.05,0,0,0,.67-.35,4.49,4.49,0,0,0,.52-.37,4.24,4.24,0,0,0,.55-.52c.2-.21.33-.37.4-.45l.2-.29c.07-.1.16-.25.28-.44"/><path id="STROKE_BDE3295D-977A-4DF6-914C-66BFDDD43EA1" data-name="STROKE BDE3295D-977A-4DF6-914C-66BFDDD43EA1" class="cls-3" d="M295,113.93c.11-.24.2-.45.27-.62s.13-.4.19-.65a5.12,5.12,0,0,0,.09-1.21,5.63,5.63,0,0,0,0-1,2.61,2.61,0,0,0-.14-.37,1.61,1.61,0,0,0-.24-.36l-.2-.19-.16-.1-.29-.11a3.11,3.11,0,0,0-.7-.08,3.28,3.28,0,0,0-.73,0,4.89,4.89,0,0,0-.76.21,5.27,5.27,0,0,0-1.08.51,8.75,8.75,0,0,0-1.06.78,8.51,8.51,0,0,0-1,1,11.47,11.47,0,0,0-.87,1.14,8.34,8.34,0,0,0-.67,1.19c-.19.4-.31.7-.38.89a6.66,6.66,0,0,0-.19.9,5.7,5.7,0,0,0-.11.88,5.25,5.25,0,0,0,.09.83,3.91,3.91,0,0,0,.14.64,1.08,1.08,0,0,0,.11.18l.16.18.23.16a1.22,1.22,0,0,0,.28.13,4.76,4.76,0,0,0,.76.14,6.68,6.68,0,0,0,1,.08,8.43,8.43,0,0,0,.86-.05c.29,0,.58-.08.88-.14a13.36,13.36,0,0,0,1.41-.45,12.84,12.84,0,0,0,1.31-.52,6.38,6.38,0,0,0,.8-.51,4,4,0,0,0,.64-.56,2.36,2.36,0,0,0,.24-.33c0-.06.07-.15.12-.28a4.11,4.11,0,0,0,.12-.6,3.85,3.85,0,0,0,.05-.71,3.77,3.77,0,0,0,0-.51l0-.22s0,0,0,.09l.06.34c0,.16.08.36.13.59s.13.59.25,1.1.2.89.27,1.17.12.51.16.71.12.47.2.85.17.65.22.86.13.56.25,1.08.21.9.26,1.16.1.53.13.79.07.5.09.74,0,.5,0,.76,0,.52,0,.78a7,7,0,0,1-.12.73,5.47,5.47,0,0,1-.23.73,4.4,4.4,0,0,1-.38.75,4.81,4.81,0,0,1-.55.73,7.12,7.12,0,0,1-.69.66,5.62,5.62,0,0,1-.82.56,5.41,5.41,0,0,1-.91.44,7,7,0,0,1-.84.25,5.49,5.49,0,0,1-.86.1,5,5,0,0,1-1.05-.07,4,4,0,0,1-.81-.19,2.51,2.51,0,0,1-.37-.19,1.43,1.43,0,0,1-.26-.22,1.21,1.21,0,0,1-.21-.24,2.09,2.09,0,0,1-.2-.4,2.88,2.88,0,0,1-.14-.42,3.16,3.16,0,0,1-.05-.61,5.73,5.73,0,0,1,0-.64c0-.13,0-.24,0-.35"/><path id="STROKE_66BE1699-46FA-4D37-804E-9415CEAC1710" data-name="STROKE 66BE1699-46FA-4D37-804E-9415CEAC1710" class="cls-3" d="M301.47,114.15l.22,0,.77-.17,1.14-.26.76-.19c.21-.05.39-.08.53-.1l.64-.08c.29,0,.91-.07,1.87-.12s1.52-.1,1.69-.13a2,2,0,0,0,.37-.09.49.49,0,0,0,.18-.14.43.43,0,0,0,.09-.23.72.72,0,0,0,0-.22,4.67,4.67,0,0,0-.22-.48,6.14,6.14,0,0,0-.38-.67,6.56,6.56,0,0,0-.45-.63,4.76,4.76,0,0,0-.48-.58,2.24,2.24,0,0,0-.68-.55,2.13,2.13,0,0,0-.51-.18,2.85,2.85,0,0,0-.67-.1,8,8,0,0,0-1.12.08,7,7,0,0,0-1.13.22,5.46,5.46,0,0,0-.63.26,3.36,3.36,0,0,0-.58.38,6.67,6.67,0,0,0-.82.78,12.49,12.49,0,0,0-1,1.23,9.47,9.47,0,0,0-.63,1,5.36,5.36,0,0,0-.24.56c0,.13-.09.32-.14.56a3.31,3.31,0,0,0-.08.6,5,5,0,0,0,.05.84,4.61,4.61,0,0,0,.1.72,2.35,2.35,0,0,0,.15.35,2.25,2.25,0,0,0,.22.37,1.42,1.42,0,0,0,.24.25,2.75,2.75,0,0,0,.57.37,18,18,0,0,0,2.09.86c1.1.4,1.82.66,2.17.76s.8.24,1.38.39,1,.25,1.27.29l.7.09c.2,0,.43,0,.67,0a6.74,6.74,0,0,0,1.07-.12,4.88,4.88,0,0,0,.83-.18l.21-.12a.9.9,0,0,0,.19-.15,1.08,1.08,0,0,0,.16-.2,1.3,1.3,0,0,0,.16-.29,7.66,7.66,0,0,0,.24-.87c.11-.47.22-1.07.34-1.81"/></g><g id="Unerase"><path id="STROKE_982FF806-9D92-4354-BC09-F8BBCB66400F" data-name="STROKE 982FF806-9D92-4354-BC09-F8BBCB66400F" class="cls-3" d="M295.37,112.14c0,.08.07.29.14.61s.13.55.16.68.06.24.08.31l.07.23c0,.09.08.24.14.45s.12.41.17.59.12.4.2.69l.19.68.15.6.17.66c.05.2.1.42.16.65s.09.39.11.49a2.93,2.93,0,0,1,.05.29l.09.45c0,.2.06.34.08.41s0,.15.05.24,0,.2.07.33.05.24.07.34,0,.24.06.4.05.34.07.55,0,.39.06.51,0,.32.06.55.05.44.07.61,0,.3.06.4,0,.27.06.51.05.42.06.54a5.42,5.42,0,0,1,0,.68,5.54,5.54,0,0,1-.08.78c-.05.18-.09.32-.13.44a2.5,2.5,0,0,1-.17.4,3.52,3.52,0,0,1-.17.34l-.14.22c-.05.07-.11.14-.16.22l-.23.26c-.09.11-.2.22-.32.34l-.25.26-.19.18-.21.18-.19.13a1.65,1.65,0,0,1-.26.15l-.38.17c-.12.06-.28.12-.46.19l-.42.17-.33.11a6.84,6.84,0,0,1-.84.15,7.25,7.25,0,0,1-.8.08l-.28,0-.23-.05-.27-.07-.3-.09-.3-.1-.34-.16a1.48,1.48,0,0,1-.26-.16,2,2,0,0,1-.28-.34,1.86,1.86,0,0,1-.24-.46,11.84,11.84,0,0,1-.2-1.67"/><path id="STROKE_DD4D1C50-4019-472A-8F4B-78D3763FB562" data-name="STROKE DD4D1C50-4019-472A-8F4B-78D3763FB562" class="cls-3" d="M312.78,116.64c-.09.27-.16.46-.21.58l-.14.31a3,3,0,0,1-.15.26c0,.07-.11.17-.2.28l-.24.3a3.1,3.1,0,0,1-.32.33l-.29.28-.19.14a2.36,2.36,0,0,1-.26.17,4,4,0,0,1-.47.26,5.22,5.22,0,0,1-.5.22,2.65,2.65,0,0,1-.37.12,2.46,2.46,0,0,1-.33.07,3.38,3.38,0,0,1-.5.05,7.34,7.34,0,0,1-1.12,0c-.51,0-.82-.06-.93-.08l-.35-.08-.56-.12-.65-.15a5.11,5.11,0,0,1-.58-.16,5.76,5.76,0,0,1-.55-.21,4.73,4.73,0,0,1-.45-.23c-.14-.07-.28-.16-.42-.24l-.31-.21-.25-.17-.23-.15L302,118l-.22-.17-.2-.18-.26-.29c-.11-.13-.21-.25-.31-.39l-.27-.37c-.08-.11-.14-.21-.19-.29a1.32,1.32,0,0,1-.13-.2,1.3,1.3,0,0,1-.1-.15l-.08-.17a1.53,1.53,0,0,1-.11-.25,3.27,3.27,0,0,1-.09-.44,5.09,5.09,0,0,1,0-1,6.79,6.79,0,0,1,.08-.81,1.45,1.45,0,0,1,.06-.19.73.73,0,0,1,.05-.12"/></g><g id="HTML_Underlines" data-name="HTML Underlines"><path id="STROKE_0E81FAB8-74DB-490A-9F82-44287E1FDA33" data-name="STROKE 0E81FAB8-74DB-490A-9F82-44287E1FDA33" class="cls-4" d="M16.89,122.77l-1.88.06h-.09l-1.07,0-1.1,0-.84.09-.88.09H10.8l-1.08,0h-1l-2.8-.08L3.12,123,3,123l-.12,0-.05,0"/><path id="STROKE_C4BEC050-8541-4D63-B6A5-F08CFBCADA5F" data-name="STROKE C4BEC050-8541-4D63-B6A5-F08CFBCADA5F" class="cls-4" d="M80.8,124.11l.71,0H81.3l-.76,0-.94,0c-.18,0-.52.05-1,.12l-.82.11-.17,0-.37.06-.41.06c-.1,0-.43,0-1,.06l-1.28.05h-.91l-1.28,0-1.31,0-.25,0-.36,0-.47,0h-.3"/><path id="STROKE_8B25621E-AEB4-4E3C-8C41-A28D31632E76" data-name="STROKE 8B25621E-AEB4-4E3C-8C41-A28D31632E76" class="cls-4" d="M141.05,124.9h-3l-.92.06-1.21.09-.49,0-.37,0-.53,0h-2.82c-1.24,0-2,0-2.19,0s-.86,0-1.94,0h-1.78l-.83,0c-.43,0-.7,0-.79.06l-.44,0-.43,0a.55.55,0,0,1-.22,0s-.06,0,0-.07,0,0,.1-.08l.16-.08.2-.07"/><path id="STROKE_B48F4117-3BD6-43A2-BF29-11C563BA9672" data-name="STROKE B48F4117-3BD6-43A2-BF29-11C563BA9672" class="cls-4" d="M222.45,125l-1,0-1.18,0-1,.1-.93.08H218l-.85,0-1,0-.37,0-.24,0-2.38.06-2.38,0-.2,0-.32,0-.46,0-.62,0"/></g></g></g></svg>